<svg xmlns="http://www.w3.org/2000/svg" viewBox="0 0 46.07 48"><defs><style>.a{fill:#2c646e}</style></defs><path class="a" d="M7 9.73a.93.93 0 00.93-.92V6.46h4.65a.93.93 0 000-1.86H7a.93.93 0 00-.93.93v3.28a.93.93 0 00.93.92zM7 21.87a.93.93 0 00.93-.93v-2.35h4.65a.93.93 0 100-1.85H7a.93.93 0 00-.93.92v3.28a.93.93 0 00.93.93zM7.91 30.73h4.65a.93.93 0 000-1.86H7a.93.93 0 00-.93.93v3.27a.93.93 0 001.86 0zM17.23 34a.92.92 0 00.93-.93v-2.34h4.66a.93.93 0 000-1.86h-5.59a.93.93 0 00-.92.93v3.27a.92.92 0 00.92.93zM17.23 21.87a.93.93 0 00.93-.93v-2.35h4.66a.93.93 0 100-1.85h-5.59a.92.92 0 00-.92.92v3.28a.93.93 0 00.92.93zM17.23 9.73a.92.92 0 00.93-.92V6.46h4.66a.93.93 0 000-1.86h-5.59a.93.93 0 00-.92.93v3.28a.92.92 0 00.92.92z"/><path class="a" d="M37.05 10.36h7.89a1.13 1.13 0 001.13-1.13v-6a1.14 1.14 0 00-1.13-1.13h-7.89a1.13 1.13 0 00-1.13 1.13V5.1h-2.44a2.23 2.23 0 00-2.23 2.23v16.13H28.7V2.23A2.22 2.22 0 0026.5 0H3.36a2.23 2.23 0 00-2.23 2.23v43.52a1.13 1.13 0 100 2.25h27.49a1.13 1.13 0 00.05-2.25v-20h2.55V41.8a2.23 2.23 0 002.26 2.2h2.44v1.88A1.12 1.12 0 0037.05 47h7.89a1.13 1.13 0 001.13-1.12v-6a1.13 1.13 0 00-1.13-1.12h-7.89a1.12 1.12 0 00-1.13 1.12v1.88H33.5V25.72h2.42v1.88a1.12 1.12 0 001.13 1.12h7.89a1.13 1.13 0 001.13-1.12v-6a1.13 1.13 0 00-1.13-1.12h-7.89a1.12 1.12 0 00-1.13 1.12v1.88H33.5V7.36h2.42v1.87a1.12 1.12 0 001.13 1.13zM3.38 2.25h23.09v22.1a1.45 1.45 0 000 .48v20.92h-6.91V38a.93.93 0 00-.93-.93h-7.46a.93.93 0 00-.93.93v7.79H3.38zm14.32 43.5h-5.6v-6.86h5.6zM38.17 41h5.64v3.76h-5.64zm0-18.31h5.64v3.76h-5.64zm0-18.36h5.64v3.78h-5.64z"/></svg>