<svg xmlns="http://www.w3.org/2000/svg" viewBox="0 0 37 33.03"><defs><style>.a{fill:#fff}</style></defs><path class="a" d="M7.67 2.75H22v3.89A1.37 1.37 0 0023.4 8h3.89v3.27H30V6.64A2.23 2.23 0 0029.32 5L25 .71A2.1 2.1 0 0023.4 0H7.33a2.43 2.43 0 00-2.42 2.44v8.85h2.76zM4.91 30.6A2.43 2.43 0 007.33 33h20.29A2.42 2.42 0 0030 30.6v-.32H4.91zM10.31 18.93c0-2.66-1.88-4.5-5-4.5H1.43A1.42 1.42 0 000 15.82v10.27a1.42 1.42 0 001.43 1.43 1.43 1.43 0 001.44-1.43V23.5H5c3 0 5.31-1.56 5.31-4.57zM2.87 17h2.21c1.43 0 2.32.69 2.32 2a2 2 0 01-2.26 2H2.87zM17.51 14.39h-3.65a1.42 1.42 0 00-1.43 1.43V26a1.42 1.42 0 001.43 1.43h3.65c4.09 0 6.92-2.85 6.92-6.51 0-3.72-2.83-6.53-6.92-6.53zm3.92 6.55a3.71 3.71 0 01-3.92 3.89h-2.22V17h2.22a3.74 3.74 0 013.92 3.93zM35.7 17a1.3 1.3 0 000-2.6h-7.3a1.42 1.42 0 00-1.4 1.42v10.27a1.44 1.44 0 002.87 0v-3.72h5a1.31 1.31 0 000-2.61h-5V17z"/></svg>