<svg xmlns="http://www.w3.org/2000/svg" viewBox="0 0 51.97 42.49"><defs><style>.a{fill:#a89471}</style></defs><path class="a" d="M22.49 2a1.49 1.49 0 00-.74-2C21-.15 20.3.5 20.12 1.4l-1.83 9.2c0 .22.18.47.51.55s.64 0 .71-.23z"/><path class="a" d="M17.8 14.89a2.71 2.71 0 011.11.78c2.2 2.39 1.23 5.43.34 8.13-.44 1.32-1.33 3.2-1.25 4.61a4.25 4.25 0 001.69 3.35c1.7 1.2 4.23 1.54 5.84.09A9.18 9.18 0 0028.26 27c.32-1.73.08-3.74-1.6-4.71-2.56-1.49-3.76.45-3.76.45a5.68 5.68 0 00-1.44 4.55c.37 1.57 2 1.17 2-.3 0-1-.93-2.8.6-3.25A2.41 2.41 0 0126.59 25a5 5 0 01-.47 3.86c-.74 1.5-2.3 3-4.13 2.61-1.61-.31-2.73-2.25-2.69-3.8 0-1.9 1.44-3.53 2.35-5.1 1-1.73 1.91-3.51 2.84-5.28a9.8 9.8 0 001.51-4.7c0-3-4-5.6-6.61-3.74-1.38-2.91-6.12-2.57-7.62 0a9.82 9.82 0 00-1 4.83c-.08 2-.17 4-.16 6 0 1.81.42 3.91-.49 5.58-.74 1.37-2.68 2.51-4.23 2-1.77-.58-2.4-2.6-2.3-4.28a5.06 5.06 0 011.53-3.58 2.44 2.44 0 012.82.15c1.1 1.15-.57 2.25-1.1 3.13-.75 1.26.49 2.42 1.59 1.24a5.63 5.63 0 001-4.67S9.37 17 6.39 17c-1.94 0-3.15 1.66-3.73 3.32a9.07 9.07 0 000 5.55c.68 2 3.05 3 5.12 2.77a4.31 4.31 0 003.14-2.1c.74-1.19.91-3.27 1.19-4.63.56-2.78 1.24-5.91 4.33-6.91a2.63 2.63 0 011.36-.14"/><path class="a" d="M18.51 21.25c-.88 3.3-5.12 10.21-5.12 10.21s-.25-8.08.63-11.38 2.22-4.32 3.46-4 1.91 1.87 1 5.16M30 2a1.49 1.49 0 01.73-2c.71-.18 1.45.47 1.63 1.37l1.84 9.2c0 .22-.19.47-.51.55s-.64 0-.71-.23z"/><path class="a" d="M34.68 14.89a2.58 2.58 0 00-1.11.78c-2.2 2.39-1.23 5.43-.34 8.13.44 1.32 1.32 3.21 1.27 4.61a4.2 4.2 0 01-1.69 3.35c-1.69 1.2-4.22 1.54-5.83.09A9.11 9.11 0 0124.22 27c-.33-1.73-.08-3.74 1.59-4.71 2.56-1.49 3.76.45 3.76.45A5.61 5.61 0 0131 27.31c-.36 1.57-2 1.17-2-.3 0-1 .92-2.8-.61-3.25a2.4 2.4 0 00-2.5 1.24 5 5 0 00.46 3.86c.75 1.5 2.31 3 4.13 2.61 1.61-.31 2.73-2.25 2.7-3.8 0-1.9-1.44-3.53-2.35-5.1-1-1.73-1.92-3.51-2.85-5.28a9.89 9.89 0 01-1.52-4.69c0-3 4-5.6 6.61-3.74 1.38-2.91 6.11-2.57 7.61 0a9.83 9.83 0 011 4.83c.07 2 .16 4 .15 6 0 1.81-.41 3.91.49 5.58.74 1.37 2.68 2.51 4.24 2 1.76-.58 2.4-2.6 2.3-4.28a5 5 0 00-1.52-3.58 2.42 2.42 0 00-2.81.15c-1.1 1.15.56 2.25 1.09 3.13.76 1.26-.49 2.42-1.59 1.24a5.7 5.7 0 01-1-4.67s.08-2.27 3-2.22c1.94 0 3.16 1.66 3.74 3.32a9.22 9.22 0 010 5.55c-.68 2-3.06 3-5.13 2.77a4.33 4.33 0 01-3.14-2.1c-.73-1.19-.91-3.27-1.18-4.63C39.8 19.16 39.13 16 36 15a2.6 2.6 0 00-1.35-.14"/><path class="a" d="M34 21.25c.87 3.3 5.11 10.21 5.11 10.21s.26-8.08-.62-11.38-2.22-4.32-3.46-4S33.09 18 34 21.25M0 39.66l1.09-5 .69.15-.52 2.39L3 35l.71.15L2 37.31l.64 2.9-.74-.15-.62-2.84-.6 2.58zM4.13 37.89a4.51 4.51 0 01.7-2 1.2 1.2 0 011.22-.41 1.2 1.2 0 011 .8 4.41 4.41 0 010 2.06 4.35 4.35 0 01-.69 1.94 1.2 1.2 0 01-1.22.4 1.21 1.21 0 01-1-.79 4.34 4.34 0 01-.01-2zm.7.1a5 5 0 00-.09 1.55.63.63 0 00.51.55.61.61 0 00.66-.32 4.85 4.85 0 00.44-1.52 4.77 4.77 0 00.1-1.55.6.6 0 00-.51-.53.6.6 0 00-.66.33 4.63 4.63 0 00-.45 1.5zM7.87 41.12l1.13-5 .63.08.22 3.63 1.2-3.44.61.08-.25 5.16-.64-.08.28-3.61-1.18 3.45-.47-.06-.2-3.68-.69 3.56zM12.41 41.7l1.72-5 .65.06.72 5.24-.71-.07-.15-1-1.18-.12-.34 1zm1.92-3.7l-.69 2.18.94.09zM16.63 42.08l.37-5.14.69.05-.16 2.43 1.39-2.35h.73l-1.4 2.37 1.06 2.77h-.76l-1-2.72-.18 2.65zM20.38 40.93l.14-3.77h.69L21.07 41a.79.79 0 00.15.55.67.67 0 00.51.2.69.69 0 00.52-.16.79.79 0 00.18-.54l.14-3.83h.69L23.13 41a1.57 1.57 0 01-.37 1.08 1.38 1.38 0 01-1.05.3 1.34 1.34 0 01-1-.38 1.51 1.51 0 01-.33-1.07zM24.4 41.52a2.69 2.69 0 00.46.22 1.19 1.19 0 00.4.08.72.72 0 00.51-.18.66.66 0 00.19-.5c0-.3-.23-.65-.71-1l-.13-.14a2.5 2.5 0 01-.64-.71 1.25 1.25 0 01-.18-.72 1.34 1.34 0 01.38-1 1.23 1.23 0 01.93-.38 1.76 1.76 0 01.46.06 2.11 2.11 0 01.45.18v.69a1.49 1.49 0 00-.39-.21 1.07 1.07 0 00-.39-.07.73.73 0 00-.53.18.7.7 0 00-.2.52c0 .29.25.64.76 1l.11.09a2.53 2.53 0 01.62.69 1.54 1.54 0 01.18.75 1.28 1.28 0 01-.39 1 1.3 1.3 0 01-1 .38 1.39 1.39 0 01-.44-.07 2 2 0 01-.46-.2zM27.54 42.43l1.11-5.17h.66l1.33 5.13h-.71l-.27-1h-1.19l-.22 1zM29 38.58l-.43 2.24h.94zM36.31 39.28a2.91 2.91 0 000 .31v.3a2.92 2.92 0 01-.26 1.69 1.27 1.27 0 01-1.1.62 1.24 1.24 0 01-1.2-.53 4.31 4.31 0 01-.49-2 4.18 4.18 0 01.22-2.05 1.26 1.26 0 011.13-.69 1.47 1.47 0 01.94.21 1.35 1.35 0 01.54.78l-.59.34a1 1 0 00-.31-.54.69.69 0 00-.53-.15.64.64 0 00-.61.47 4.13 4.13 0 00-.05 1.57 4.26 4.26 0 00.29 1.54.64.64 0 00.67.39.66.66 0 00.59-.37 1.92 1.92 0 00.13-1 .58.58 0 000-.15.28.28 0 000-.09L35 40v-.61zM38.36 39.34l.26 2.5-.7.07-.52-5.12.84-.08a1.84 1.84 0 011.23.18 1.34 1.34 0 01.46 1 1.36 1.36 0 01-.16.91 1 1 0 01-.69.45l1.49 2.4-.75.07-1.44-2.38zm0-.39h.22a.81.81 0 00.58-.26 1 1 0 00.1-.71.77.77 0 00-.26-.58 1 1 0 00-.65-.1h-.19zM41.25 39a4.54 4.54 0 01.07-2.06 1.35 1.35 0 012.25-.3 4.33 4.33 0 01.61 2 4.38 4.38 0 01-.06 2 1.22 1.22 0 01-1 .76 1.24 1.24 0 01-1.21-.46 4.43 4.43 0 01-.66-1.94zm.71-.11a4.47 4.47 0 00.38 1.51.62.62 0 00.66.36.58.58 0 00.52-.5 4.68 4.68 0 000-1.57 4.76 4.76 0 00-.38-1.51.61.61 0 00-.65-.36.61.61 0 00-.53.52 4.57 4.57 0 00.04 1.53zM45.72 39.57l-.65-3.73.68-.11.66 3.77a.77.77 0 00.26.51.67.67 0 00.54.09.66.66 0 00.47-.26.73.73 0 00.07-.57l-.66-3.78.68-.11.66 3.72a1.54 1.54 0 01-.14 1.13 1.72 1.72 0 01-2 .35 1.5 1.5 0 01-.57-1.01zM50.23 40.15l-1.09-5 .84-.18a3.19 3.19 0 01.73-.08 1 1 0 01.5.12 1.15 1.15 0 01.45.4 1.79 1.79 0 01.27.63 1.36 1.36 0 01-.18 1.14 1.81 1.81 0 01-1.11.61h-.2l.48 2.21zm.08-3l.25-.06a.92.92 0 00.62-.33.85.85 0 000-.67.81.81 0 00-.34-.57 1.12 1.12 0 00-.73 0l-.2.05z"/></svg>