<svg xmlns="http://www.w3.org/2000/svg" viewBox="0 0 73.67 60.86"><defs><style>.a{fill:#924882}</style></defs><path class="a" d="M31.87 2.89c.42-1.25 0-2.58-1-2.85s-2 .68-2.31 2l-2.63 13.14c-.07.32.25.67.71.79s.91 0 1-.34z"/><path class="a" d="M25.23 21.33a3.67 3.67 0 011.57 1.12c3.12 3.41 1.75 7.77.48 11.64-.62 1.89-1.87 4.6-1.8 6.6a6 6 0 002.39 4.8c2.4 1.71 6 2.2 8.27.13a13.13 13.13 0 003.91-6.91c.46-2.48.11-5.36-2.26-6.75-3.63-2.14-5.33.64-5.33.64-1.38 1.81-2.59 4.16-2 6.52s2.87 1.67 2.83-.43c0-1.47-1.31-4 .86-4.66a3.42 3.42 0 013.58 1.76c.72 1.65.09 4-.66 5.53-1.06 2.16-3.27 4.24-5.86 3.73-2.28-.44-3.87-3.21-3.82-5.44.06-2.71 2-5 3.34-7.3 1.42-2.48 2.71-5 4-7.56 1.12-2.16 2.17-4.22 2.16-6.72 0-4.29-5.62-8-9.37-5.35-2-4.17-8.67-3.68-10.8 0-1.24 2.17-1.34 4.48-1.42 6.91-.1 2.86-.23 5.71-.22 8.57 0 2.6.59 5.61-.69 8-1.05 2-3.8 3.59-6 2.85-2.5-.84-3.39-3.73-3.26-6.13.1-1.7.71-4.06 2.15-5.14a3.41 3.41 0 014 .23c1.56 1.63-.8 3.21-1.55 4.47-1.1 1.86.67 3.56 2.27 1.82s1.74-4.43 1.43-6.69c0 0-.11-3.25-4.32-3.18-2.75.05-4.47 2.38-5.29 4.76a13.15 13.15 0 000 8c1 2.92 4.33 4.27 7.26 4a6.09 6.09 0 004.45-3c1.05-1.71 1.29-4.68 1.68-6.64.8-4 1.76-8.45 6.15-9.89a3.6 3.6 0 011.92-.2"/><path class="a" d="M26.23 30.44C25 35.16 19 45.06 19 45.06s-.36-11.57.89-16.29S23 22.58 24.78 23s2.7 2.68 1.45 7.4M42.51 2.89c-.42-1.25 0-2.58 1-2.85s2.05.68 2.31 2l2.59 13.17c.07.32-.26.67-.71.79s-.91 0-1-.34z"/><path class="a" d="M49.15 21.33a3.67 3.67 0 00-1.57 1.12c-3.12 3.41-1.75 7.77-.48 11.64.62 1.89 1.88 4.6 1.81 6.6a6.08 6.08 0 01-2.4 4.8c-2.4 1.71-6 2.2-8.27.13a13.21 13.21 0 01-3.92-6.91c-.46-2.48-.1-5.36 2.26-6.75 3.64-2.14 5.34.64 5.34.64 1.37 1.81 2.59 4.16 2 6.52s-2.87 1.67-2.83-.43c0-1.47 1.31-4-.86-4.66a3.42 3.42 0 00-3.58 1.76c-.72 1.65-.09 4 .66 5.53 1.06 2.16 3.27 4.24 5.85 3.73 2.29-.44 3.88-3.21 3.83-5.44-.06-2.71-2-5-3.34-7.3-1.42-2.48-2.71-5-4-7.56-1.12-2.16-2.17-4.22-2.16-6.72 0-4.29 5.62-8 9.37-5.35 2-4.17 8.66-3.68 10.79 0 1.25 2.17 1.35 4.48 1.43 6.91.1 2.86.23 5.71.22 8.57 0 2.6-.59 5.61.69 8 1 2 3.8 3.59 6 2.85 2.5-.84 3.39-3.73 3.26-6.13-.1-1.7-.71-4.06-2.15-5.14a3.41 3.41 0 00-4 .23c-1.56 1.63.8 3.21 1.55 4.47 1.1 1.86-.65 3.56-2.22 1.82s-1.74-4.43-1.43-6.69c0 0 .11-3.25 4.32-3.18 2.75.05 4.47 2.38 5.29 4.76a13.23 13.23 0 010 8c-1 2.92-4.33 4.27-7.26 4a6.09 6.09 0 01-4.45-3c-1-1.71-1.29-4.68-1.68-6.64-.8-4-1.76-8.45-6.15-9.89a3.6 3.6 0 00-1.92-.2"/><path class="a" d="M48.14 30.44c1.25 4.72 7.26 14.62 7.26 14.62s.36-11.57-.89-16.29-3.15-6.19-4.91-5.77-2.7 2.68-1.46 7.4M0 56.81l1.55-7.22 1 .21-.74 3.42 2.44-3 1 .21-2.48 3.01.91 4.16-1-.23-.88-4.06L1 57zM5.86 54.27a6.29 6.29 0 011-2.78 1.72 1.72 0 011.74-.6A1.69 1.69 0 0110 52a6.3 6.3 0 010 3 6.29 6.29 0 01-1 2.77 1.7 1.7 0 01-1.72.59 1.72 1.72 0 01-1.44-1.14 6.22 6.22 0 01.02-2.95zm1 .15a6.76 6.76 0 00-.13 2.22.88.88 0 00.73.78.84.84 0 00.91-.42A6.89 6.89 0 009 54.79a6.86 6.86 0 00.14-2.22.88.88 0 00-.72-.77.87.87 0 00-.94.48 6.64 6.64 0 00-.63 2.14zM11.15 58.9l1.61-7.23.89.12L14 57l1.7-4.93.86.11-.34 7.4-.91-.12.39-5.17-1.67 5-.66-.09-.37-5.27-1 5.09zM17.59 59.73L20 52.55l.93.09 1 7.51-1-.1-.21-1.47-1.67-.17-.49 1.42zm2.72-5.24l-1 3.12 1.32.13zM23.56 60.27l.49-7.36.95.09-.23 3.48 2-3.37 1 .07-2 3.38 1.5 4-1.06-.07-1.41-3.93-.25 3.78zM28.89 58.63l.19-5.41h1l-.19 5.49a1.12 1.12 0 00.21.79.92.92 0 00.72.28.91.91 0 00.73-.23 1.11 1.11 0 00.26-.77l.2-5.49h1l-.19 5.41a2.21 2.21 0 01-.52 1.55 2 2 0 01-1.49.44 1.93 1.93 0 01-1.46-.54 2.25 2.25 0 01-.46-1.52zM34.59 59.46a3.32 3.32 0 00.65.33 1.73 1.73 0 00.56.11 1 1 0 00.73-.26 1 1 0 00.27-.71c0-.44-.34-.93-1-1.5l-.18-.15a4 4 0 01-.91-1 2 2 0 01-.25-1 1.91 1.91 0 01.54-1.44 1.69 1.69 0 011.32-.54 2.91 2.91 0 01.66.08 2.8 2.8 0 01.63.26v1a2.43 2.43 0 00-.56-.31 1.82 1.82 0 00-.54-.1 1.05 1.05 0 00-.76.27 1 1 0 00-.29.74c0 .42.36.92 1.08 1.51l.15.12a3.42 3.42 0 01.89 1 2.1 2.1 0 01.25 1.08 1.87 1.87 0 01-1.94 1.93 2.29 2.29 0 01-.62-.1 3 3 0 01-.66-.28zM39 60.78l1.57-7.42h.94l1.88 7.34h-1L42 59.26h-1.68L40 60.75zm2.08-5.52l-.59 3.21h1.32zM51.46 56.26l.06.45v.43a4.31 4.31 0 01-.36 2.42 1.84 1.84 0 01-1.57.89 1.74 1.74 0 01-1.69-.77 6 6 0 01-.7-2.85 6.06 6.06 0 01.31-2.95 1.76 1.76 0 011.6-1 2.11 2.11 0 011.34.29 2 2 0 01.76 1.12l-.84.49A1.46 1.46 0 0050 54a1 1 0 00-.75-.21.92.92 0 00-.87.68 6.45 6.45 0 00-.11 2.25 6.47 6.47 0 00.41 2.2.94.94 0 001 .57 1 1 0 00.83-.54 2.79 2.79 0 00.19-1.43 1.09 1.09 0 000-.22v-.13l-1.06.07-.05-.87zM54.37 56.35l.36 3.59-1 .1-.73-7.35 1.2-.12a2.52 2.52 0 011.74.28 1.86 1.86 0 01.66 1.42 2.08 2.08 0 01-.22 1.3 1.49 1.49 0 01-1 .65l2.1 3.44-1.06.1-2-3.41zm0-.56h.3a1.14 1.14 0 00.83-.37 1.57 1.57 0 00.14-1 1.07 1.07 0 00-.32-.8 1.3 1.3 0 00-.91-.14h-.28zM58.47 55.83a6.43 6.43 0 01.1-2.95 1.71 1.71 0 011.48-1.08 1.68 1.68 0 011.7.65 6.51 6.51 0 01.88 2.82 6.37 6.37 0 01-.1 2.94 1.91 1.91 0 01-3.18.43 6.41 6.41 0 01-.88-2.81zm1-.15a6.53 6.53 0 00.53 2.15.87.87 0 00.92.53.86.86 0 00.75-.72 7.27 7.27 0 00-.06-2.25 6.91 6.91 0 00-.55-2.17.86.86 0 00-.91-.51.87.87 0 00-.75.74 6.77 6.77 0 00.07 2.23zM64.81 56.67l-.93-5.33 1-.17.94 5.41a1.08 1.08 0 00.37.73 1 1 0 00.76.13 1 1 0 00.67-.38 1.09 1.09 0 00.09-.81l-.94-5.41 1-.17.87 5.33a2.22 2.22 0 01-.19 1.62 2.46 2.46 0 01-2.91.51 2.18 2.18 0 01-.73-1.46zM71.2 57.5l-1.55-7.21 1.19-.29a4.15 4.15 0 011-.13 1.69 1.69 0 01.71.18 1.62 1.62 0 01.63.57 2.4 2.4 0 01.38.91 1.94 1.94 0 01-.25 1.62 2.51 2.51 0 01-1.58.88h-.28l.68 3.18zm.1-4.25l.37-.08a1.34 1.34 0 00.87-.47 1.28 1.28 0 00.08-1 1.15 1.15 0 00-.48-.81 1.45 1.45 0 00-1-.06l-.29.06z"/></svg>