<svg xmlns="http://www.w3.org/2000/svg" viewBox="0 0 1449.04 161.98"><path class="logotype" d="M871.43 58.57h27.32c4.44 0 6-.09 6.34-.09s.51 0 .51.51v3.66c0 .46 0 .5-.51.5s-1.9-.09-6.34-.09h-27.32v1.48c0 .47 0 .51-.55.51h-3.94c-.46 0-.51 0-.51-.51 0-.27.1-3.42.1-9.81v-20c0-6.34-.1-9.49-.1-9.77 0-.46.05-.51.51-.51.28 0 1.85.1 6.16.1h25.46c4.31 0 5.79-.1 6.07-.1.46 0 .51.05.51.51v3.66c0 .46 0 .51-.51.51-.28 0-1.76-.09-6.07-.09h-27.13zm9-12.5c-4.49 0-6.06.09-6.34.09-.46 0-.51 0-.51-.51v-3.1c0-.41 0-.46.51-.46.28 0 1.85.09 6.34.09h5a35.22 35.22 0 00.42-4.72h-5.1a26 26 0 01-2.41 3c-.46.51-.74.74-1 .74s-.56-.23-1.16-.79a10.36 10.36 0 00-2.5-1.66 26.1 26.1 0 005.32-6.48 11.38 11.38 0 001.11-3 26.19 26.19 0 014.08 1.07c.37.13.6.27.6.6s-.19.46-.42.65a3.47 3.47 0 00-.79 1.29 2.29 2.29 0 01-.32.6h11.39c4.12 0 5.55-.09 5.83-.09.46 0 .51 0 .51.51V37c0 .51-.05.55-.51.55-.28 0-1.71-.09-5.83-.09h-4.08a36.38 36.38 0 01-.41 4.72h6.62c4.54 0 6.06-.09 6.34-.09.51 0 .56 0 .56.46v3.1c0 .47 0 .51-.56.51-.28 0-1.8-.09-6.34-.09h-5.09c2.54 3.43 6.48 5.7 12.77 7.18a16.07 16.07 0 00-1.94 3.19c-.28.74-.42 1-.83 1a4.8 4.8 0 01-1.07-.23c-5.55-1.71-9.49-4.49-12.31-8.8-2 3.89-5.51 6.76-11.44 8.8a5 5 0 01-1.11.32c-.37 0-.51-.28-.88-1a9.65 9.65 0 00-2.18-2.77c6.48-1.86 10-4 11.67-7.69zM941.35 37.13a16.21 16.21 0 002.87 3.06 19.18 19.18 0 001.78-1.62 7.89 7.89 0 001.07-1.39c.78.46 1.94 1.25 2.73 1.81.37.27.41.46.41.65a.62.62 0 01-.46.55 4.56 4.56 0 00-1.39 1l-1.2 1a27.08 27.08 0 005.92 2.46 10.59 10.59 0 00-1.52 2.5c-.37.83-.56 1.15-.88 1.15a3.1 3.1 0 01-1.11-.41 31.3 31.3 0 01-3.57-1.82v4.49c0 2.36.09 3.47.09 3.75 0 .47 0 .51-.56.51-.27 0-2.22-.09-6.06-.09H938v6.4c0 1.76-.46 2.59-1.57 3.15-.93.51-2.13.74-5 .69-1.43.03-1.43.03-1.75-1.4a9.7 9.7 0 00-1-2.73 29 29 0 003.2.14c1.38 0 1.66-.37 1.66-1.34v-4.91h-1.9c-3.79 0-5.78.09-6.06.09-.46 0-.51 0-.51-.51 0-.28.09-1.62.09-4.26v-3.33l-2.4 1.57a1.91 1.91 0 01-.79.37c-.23 0-.37-.18-.65-.65s-.79-1.06-1.11-1.48a50.67 50.67 0 01-.83 6.44 29.46 29.46 0 01-4.63 10.74c-.37.51-.61.79-.88.79s-.47-.23-.88-.79a12.25 12.25 0 00-2.64-2.55 22 22 0 004.86-10 30.47 30.47 0 00.55-3.29c-.88.51-1.75 1-2.63 1.43a6.21 6.21 0 00-1.44.93.81.81 0 01-.69.37c-.28 0-.47-.14-.56-.51a42.16 42.16 0 01-1.2-4.16 26.09 26.09 0 003.7-1.16 32 32 0 003.15-1.48c0-1.81.09-3.8.09-6.12 0-7.08-.09-10.23-.09-10.5 0-.51 0-.56.51-.56.28 0 1.9.09 6.39.09h8.33v-.32a17.39 17.39 0 00-.37-3.57c1.76 0 3.29.1 4.95.24.47 0 .75.23.75.5a2.24 2.24 0 01-.28.84 4.47 4.47 0 00-.23 1.8v.51h8.88c4.5 0 6-.09 6.3-.09.46 0 .46.05.46.56v3c0 .47 0 .51-.46.51-.28 0-1.8-.09-6.3-.09h-11.73c1.26.19 2.6.42 3.71.65.46.09.74.28.74.56a1 1 0 01-.42.83 4 4 0 00-1 1.53h8c4.54 0 6.12-.1 6.39-.1.47 0 .51 0 .51.51v2.74c0 .41 0 .46-.51.46-.27 0-1.85-.1-6.39-.1zm-29-6.57c.6-.32.74-.28.92.14a43.92 43.92 0 012.64 6.76c.14.46.1.6-.46.92l-2 1.21a1.59 1.59 0 01-.6.23c-.14 0-.23-.09-.32-.37a48.81 48.81 0 00-2.59-7c-.24-.41-.24-.46.37-.78zm17.75 26.16c.37.23.56.46.56.74s-.23.46-.6.69a6.34 6.34 0 00-1 .88 25.61 25.61 0 01-5.61 4.31 2.41 2.41 0 01-1.11.46c-.32 0-.55-.27-1.11-.92a11.31 11.31 0 00-2.23-2.09 24.36 24.36 0 006.16-3.61A8.37 8.37 0 00927 55.1c1.06.55 2.31 1.16 3.1 1.62zm-1.3-19.59c-4.53 0-6.11.1-6.38.1-.47 0-.51 0-.51-.46V34c0-.46 0-.51.51-.51.27 0 1.85.1 6.38.1h3a12.62 12.62 0 001.07-3.57h-12.35V38c0 2.64 0 5-.19 7.08a37.76 37.76 0 004.08-2.5 24.43 24.43 0 00-2.6-2.78c-.37-.37-.23-.51.19-.83l1.57-1.34a.76.76 0 01.47-.23.48.48 0 01.41.23 27.14 27.14 0 012.73 2.64 16.58 16.58 0 002.69-3.11zm.47 7.27v2.09h12.54V44.4zm12.54 5.19h-12.54v1.94h12.54zm-1.89-8.52a19.49 19.49 0 01-2.87-3.94h-2.55a22.71 22.71 0 01-2.83 3.94zm2.87 14.68c.51-.33.6-.42 1-.1a22.59 22.59 0 007.59 4.45 12.77 12.77 0 00-2 2.55c-.46.74-.69 1.06-1 1.06a3.42 3.42 0 01-1.11-.46 32 32 0 01-6.76-5.19c-.32-.32-.28-.55.23-.88zM958.21 35.33c.32-.42.51-.46.92-.23a40.46 40.46 0 016.72 4.77.49.49 0 01.23.41.81.81 0 01-.23.51l-2.09 2.83c-.23.32-.37.46-.51.46s-.23-.09-.41-.23a34.59 34.59 0 00-6.67-5.14c-.19-.14-.28-.23-.28-.37s.09-.28.28-.51zm0 23.06a72.81 72.81 0 004.26-11.16 24.16 24.16 0 002.69 2.31c.74.51 1 .74 1 1.16a4.91 4.91 0 01-.23 1.07A101.79 101.79 0 01962 62.23a12.54 12.54 0 00-.69 1.8c-.09.38-.28.61-.56.61a1.8 1.8 0 01-.83-.23 27.4 27.4 0 01-3.8-2.55 15.51 15.51 0 002.13-3.47zm2-34.68c.37-.46.51-.46.88-.23a40.82 40.82 0 016.67 4.9c.32.28.37.42-.05 1l-2.08 2.82c-.33.46-.42.51-.84.19a33.33 33.33 0 00-6.58-5.39c-.42-.24-.42-.33 0-.84zm13.61 23.1c-4.54 0-6.16.09-6.43.09-.47 0-.51 0-.51-.55v-3.61c0-.47 0-.51.51-.51.27 0 1.89.09 6.43.09h5.33v-6.76H976c-4.44 0-6 .09-6.2.09-.47 0-.51 0-.51-.51v-3.56c0-.46 0-.51.51-.51.23 0 1.76.09 6.2.09h3.2v-2a44.89 44.89 0 00-.3-6.16c1.76 0 3.38.14 4.91.28.46 0 .74.27.74.55a2.44 2.44 0 01-.23.93c-.23.55-.33 1.62-.33 4.26v2.17h5c4.45 0 6-.09 6.25-.09.46 0 .51.05.51.51v3.56c0 .47 0 .51-.51.51-.28 0-1.8-.09-6.25-.09h-5v6.76h7c4.54 0 6.16-.09 6.43-.09s.47 0 .47.51v3.61c0 .51-.05.55-.47.55s-1.89-.09-6.43-.09h-9.31a113.42 113.42 0 01-4.07 10.88c4.07-.37 7.73-.79 11.48-1.34a67.68 67.68 0 00-3.38-4.54c-.32-.42-.28-.55.28-.88l2.5-1.48c.46-.28.6-.23.93.09a60.3 60.3 0 018.19 12c.23.46.23.51-.32.88l-2.87 1.71a1.27 1.27 0 01-.61.28c-.14 0-.23-.14-.32-.37-.65-1.25-1.3-2.5-2-3.75-6.85 1.16-12.92 1.94-20.42 2.68a4.51 4.51 0 00-1.71.42 1.41 1.41 0 01-.83.32c-.38 0-.61-.27-.75-.74a41.29 41.29 0 01-1-4.58 48.55 48.55 0 004.86-.19 4.59 4.59 0 00.74 0 72.86 72.86 0 004.16-11.3zM1041.64 63.06c-.37.79-.51 1.11-.83 1.11s-.51-.18-1.07-.55c-8.84-5.7-14.21-13.61-16.34-22.13a34.5 34.5 0 01-16.76 22.17 3 3 0 01-1.07.47c-.32 0-.51-.33-.92-1.11a13 13 0 00-2.69-3.11c12.18-5.64 18.11-17.22 18-30.18 0-2-.09-4-.32-6 1.8.09 4 .32 5.69.55.6.1.88.38.88.75a2 2 0 01-.46 1.15 7.58 7.58 0 00-.37 3.06c-.05.55-.05 1.11-.05 1.66 2 13.57 7.83 22.55 18.89 28.57a12.76 12.76 0 00-2.58 3.59zM1073.7 47.18c.41.23.46.46.23.83a7.7 7.7 0 00-1.2 3.52c0 2.92 3 4.36 11 4.36a58.36 58.36 0 0012.54-1.35c.65-.14.88 0 1 .42a38.46 38.46 0 01.74 4.54c0 .41-.23.6-.79.69a69.6 69.6 0 01-13.8 1.11c-10.37 0-15.69-3.33-15.69-9.35 0-1.9.69-3.89 2.45-6.62 1.16.6 2.31 1.2 3.52 1.85zM1084.16 29c3.38 0 6.85-.23 9.82-.41.46-.05.64.13.69.51a30.22 30.22 0 01.23 3.93c0 .65-.23.93-.79 1a27 27 0 00-11.34 4.59 1.86 1.86 0 01-2.13.14 10.81 10.81 0 00-3.24-1.49c2.41-1.57 4.45-2.87 6.07-3.84a31.68 31.68 0 01-3.8.14 56.72 56.72 0 01-8.1-.79c-.42-.09-.6-.27-.6-.83 0-1.11.09-2.45.18-4.12a58.62 58.62 0 0013.01 1.17zM1121.25 45.7a84.43 84.43 0 01-9.54-.18c-.5 0-.69-.19-.74-.79a28.44 28.44 0 01-.27-3.94 64.53 64.53 0 0010.41.37c0-1.76 0-3.56-.09-5.32a76 76 0 01-11.06-.23c-.51 0-.75-.19-.79-.65-.14-1.16-.23-2.27-.33-4.17a104.33 104.33 0 0012.13.47c0-1.72 0-2.92-.09-4.5a13.26 13.26 0 00-.55-3.1 26.64 26.64 0 015.83.84.94.94 0 01.51 1.39 5.66 5.66 0 00-.69 2.22c0 .92 0 1.57-.1 3a76.3 76.3 0 0010.12-1.43c.56-.14.74 0 .79.56a25.43 25.43 0 01.23 3.38c0 .6-.14.69-.51.74a96.75 96.75 0 01-10.69 1.2v5.23c3.52-.23 5.74-.69 9.08-1.2.55-.14.69-.05.74.37 0 .88.14 2.41.14 3.8 0 .46-.19.6-.7.64a83.75 83.75 0 01-9.07 1.12c.09 2.12.18 4.39.32 6.52a41.37 41.37 0 0112.27 5.6c.46.42.46.56.32 1.12a13.69 13.69 0 01-2 3.42.68.68 0 01-1.11.14 37.08 37.08 0 00-9.22-5.28c0 5-3 7-9.4 7-6 0-9.44-2.64-9.44-6.48S1111.44 51 1117 51a43.6 43.6 0 014.44.19c-.05-2.02-.14-3.92-.19-5.49zm-4 9.35c-3.38 0-5 1-5 2.46 0 1.2 1.39 2.08 4.58 2.08 1.86 0 3.57-.56 4.22-1.39a4.45 4.45 0 00.51-2.59 19.68 19.68 0 00-4.29-.56zM1170.06 27.32a1.14 1.14 0 01.37.74.94.94 0 01-.65.88 8.6 8.6 0 00-2.22 1.62c-4 3.57-9.08 8.33-12.64 12-.42.51-.6.79-.6 1s.18.51.6.83A128.33 128.33 0 011172.14 59a1.17 1.17 0 01.32.61c0 .18-.09.32-.32.55-1.07 1.16-2.41 2.5-3.19 3.2-.28.23-.47.37-.65.37s-.33-.14-.56-.42a116.86 116.86 0 00-16.85-15.65c-1.76-1.34-2.45-2.36-2.45-3.89s.83-2.54 2.26-4.07c3.94-4.26 7.78-8.1 11.76-12.46a13.14 13.14 0 002.5-3.47 37.68 37.68 0 015.1 3.55zM1194.23 28.43a15.32 15.32 0 00-2.32-3.75 36 36 0 015.51-.74c1.2 0 1.58.32 1.58 1a6.29 6.29 0 000 1.3 21.92 21.92 0 00.74 2.31c.56 1.39 1 2.5 1.58 3.75a70.48 70.48 0 009.68-2.9c.47-.23.6-.18.88.33a19.8 19.8 0 011.16 3.56c.14.47 0 .7-.37.79a74.68 74.68 0 01-9.21 2.69 52.81 52.81 0 007.08 9.76 12.93 12.93 0 001.2 1c.28.23.47.37.47.6a1.44 1.44 0 01-.28.79 18.49 18.49 0 01-1.81 3c-.37.51-.6.7-.92.7s-.37-.1-.74-.38a16.42 16.42 0 00-1.9-1.2 21.23 21.23 0 00-9.82-2.36c-4.81 0-7.73 1.43-7.73 4.35 0 3.47 4.21 4.91 11.48 4.91a45.47 45.47 0 007.41-.65 28.36 28.36 0 01-1 5c-.14.46-.32.55-.88.64a40.91 40.91 0 01-5.14.33c-10.93 0-16.81-3.48-16.81-9.59 0-5.27 4.54-9 12.18-9a23.73 23.73 0 018.24 1.25 29.66 29.66 0 01-6-8.19c-2.92.51-5.6.88-8.94 1.15-1.25.1-3.38.24-4.53.24-.42 0-.61-.28-.74-.84a34.29 34.29 0 01-1.07-4.16c2.36.09 4.26 0 5.79-.05a62.73 62.73 0 007.31-.88c-.69-1.66-1.31-3-2.08-4.76zM1230.89 37.32a54.08 54.08 0 01-8.38 5 3.05 3.05 0 01-1.11.42c-.33 0-.47-.33-.84-1.16a10.68 10.68 0 00-2.08-3.06c8-3.19 14.07-8.1 17.78-13.47a14.21 14.21 0 001.62-3 36.37 36.37 0 015 1c.55.14.83.33.83.65a.75.75 0 01-.46.74 4.07 4.07 0 00-.65.42c5.23 6.39 11.48 10.42 19.58 13.24a13.73 13.73 0 00-2 3.47c-.32.84-.46 1.16-.78 1.16a3.18 3.18 0 01-1.07-.37 50.69 50.69 0 01-8.84-4.91v3.43c0 .46 0 .51-.51.51-.28 0-1.53-.09-5.23-.09h-7.13c-3.71 0-5 .09-5.23.09-.47 0-.51-.05-.51-.51zm-3 12.55c-4.35 0-5.83.09-6.11.09-.51 0-.55-.05-.55-.51V46c0-.46 0-.51.55-.51.28 0 1.76.09 6.11.09h24.68c4.35 0 5.83-.09 6.11-.09.51 0 .56.05.56.51v3.47c0 .46 0 .51-.56.51-.28 0-1.76-.09-6.11-.09h-14.31a84.15 84.15 0 01-4.12 8.7c4.82-.28 9.87-.69 14.26-1.16-1.06-1.29-2.13-2.59-3.38-3.93-.32-.37-.27-.56.28-.83l3-1.53c.51-.28.65-.23 1 .09a82.25 82.25 0 018.58 10.77c.23.37.23.56-.23.88l-3.2 2.08c-.28.19-.41.28-.55.28s-.23-.09-.37-.32c-.79-1.3-1.58-2.5-2.32-3.61-7.68 1-17.13 1.76-25 2.36a4.16 4.16 0 00-1.67.41 1.13 1.13 0 01-.78.28c-.33 0-.56-.23-.65-.65a46.78 46.78 0 01-1-4.77 35.32 35.32 0 005 0h1.48a75.31 75.31 0 004.08-9zM1243.76 37c3.1 0 4.49-.05 5-.09a41.89 41.89 0 01-8.75-8.48 43.34 43.34 0 01-8.47 8.48c.41 0 1.71.09 5.09.09zM871.29 119.62a48.84 48.84 0 01-4.39 3.84c-.47.37-.74.6-1 .6s-.46-.37-.74-1.06a12.76 12.76 0 00-1.62-3.29A32 32 0 00875.65 106h-5.24c-3.51 0-4.62.09-4.9.09-.47 0-.51 0-.51-.51v-3.43c0-.46 0-.5.51-.5.28 0 1.39.09 4.9.09h.88v-1.9a28.11 28.11 0 00-.37-5.65c1.76 0 3.15.14 4.82.33.46 0 .74.27.74.46a2.12 2.12 0 01-.28 1c-.28.56-.28 1.34-.28 3.71v2.08h2a1.56 1.56 0 00.88-.19 1.36 1.36 0 01.51-.18c.28 0 .74.28 1.71 1.2s1.25 1.34 1.25 1.67a.9.9 0 01-.46.74 4.73 4.73 0 00-1.07 1.34 46.88 46.88 0 01-3.93 6.76 26.48 26.48 0 006.8 5.42 11.18 11.18 0 00-1.85 3c-.32.69-.55 1-.88 1s-.51-.19-.92-.56a34.08 34.08 0 01-4-4.3v13c0 3.43.1 5.24.1 5.47 0 .46 0 .51-.56.51h-3.7c-.51 0-.56 0-.56-.51 0-.28.09-2 .09-5.47zm15.47 15.28c-4.4 0-5.93.09-6.21.09-.46 0-.51-.05-.51-.51v-3.66c0-.46.05-.51.51-.51.28 0 1.81.1 6.21.1h3.89v-17.32h-7.92c-.28 0-.46 0-.46-.47V109c0-.47 0-.47.46-.47h7.92v-7.36a42.31 42.31 0 00-.37-7c1.76 0 3.52.14 5.14.32.41.05.74.23.74.47a1.92 1.92 0 01-.23 1c-.28.55-.37 1.71-.37 5.09v7.5h8.75c.46 0 .5 0 .5.47v3.65c0 .47 0 .47-.5.47h-8.75v17.32h4.21c4.4 0 5.88-.1 6.16-.1.5 0 .55.05.55.51v3.66c0 .46-.05.51-.55.51-.28 0-1.76-.09-6.16-.09zM922 108.88a54.4 54.4 0 01-8.38 5 2.91 2.91 0 01-1.11.41c-.32 0-.46-.32-.83-1.15a10.92 10.92 0 00-2.09-3.06c8.06-3.19 14.08-8.1 17.78-13.47a13.57 13.57 0 001.62-3 36.08 36.08 0 015 1c.56.14.83.33.83.65a.75.75 0 01-.46.74 4.07 4.07 0 00-.65.42c5.24 6.39 11.49 10.41 19.59 13.24a13.73 13.73 0 00-2 3.47c-.33.83-.47 1.16-.79 1.16a3.22 3.22 0 01-1.06-.37 51.15 51.15 0 01-8.85-4.91v3.43c0 .46 0 .51-.51.51-.27 0-1.52-.1-5.23-.1h-7.13c-3.7 0-4.95.1-5.23.1-.46 0-.51 0-.51-.51zm-3 12.54c-4.35 0-5.84.1-6.11.1-.51 0-.56 0-.56-.51v-3.47c0-.47.05-.51.56-.51.27 0 1.76.09 6.11.09h24.67c4.36 0 5.84-.09 6.12-.09.51 0 .55 0 .55.51V121c0 .46 0 .51-.55.51-.28 0-1.76-.1-6.12-.1h-14.3a87.58 87.58 0 01-4.12 8.71c4.81-.28 9.86-.7 14.26-1.16-1.07-1.29-2.13-2.59-3.38-3.93-.33-.37-.28-.56.28-.84l3-1.53c.51-.27.65-.23 1 .1a80.77 80.77 0 018.59 10.75c.23.37.23.55-.23.88l-3.19 2.08c-.28.19-.42.28-.56.28s-.23-.09-.37-.32c-.79-1.3-1.57-2.5-2.32-3.62-7.68 1-17.13 1.76-25 2.37a4.05 4.05 0 00-1.66.41 1.16 1.16 0 01-.79.28c-.32 0-.56-.23-.65-.65-.41-1.53-.69-3.15-1-4.77a35.46 35.46 0 005.05 0h1.48a73 73 0 004.07-9zm15.83-12.91c3.1 0 4.49-.05 5-.09a42.39 42.39 0 01-8.75-8.48 43.34 43.34 0 01-8.47 8.48c.41 0 1.71.09 5.09.09zM967.74 101.75a1.46 1.46 0 00.88-.19c.14-.09.32-.28.56-.28s.83.28 1.94 1.3 1.25 1.25 1.25 1.58a1.1 1.1 0 01-.56 1 4.62 4.62 0 00-1.11 1.72 41.58 41.58 0 01-3.65 6.66 27 27 0 005.09 4.45v-1.34c0-.47 0-.51.51-.51.28 0 1.76.09 6.16.09h11.76c4.3 0 5.83-.09 6.16-.09s.46 0 .46.51v19.16c0 .42 0 .47-.46.47h-3.52c-.46 0-.51 0-.51-.47v-1.34h-16.16v1.58c0 .46 0 .5-.56.5h-3.38c-.46 0-.51 0-.51-.5 0-.28.1-1.63.1-8.89v-4.36c0-2.22-.05-3.61-.05-4.58a11.26 11.26 0 00-2 3.38c-.14.32-.23.51-.42.51s-.5-.28-1-.79a21.13 21.13 0 01-2.32-2.87v10.85c0 3.42.09 6.62.09 6.85 0 .46 0 .51-.55.51h-3.66c-.51 0-.55 0-.55-.51 0-.28.09-3.43.09-6.85V120c-1.07 1.06-2.18 2.13-3.34 3.19-.46.42-.78.65-1 .65s-.38-.28-.51-.74a13.17 13.17 0 00-1.62-3.75A29.58 29.58 0 00966.21 106h-4.49c-3.38 0-4.49.09-4.77.09-.46 0-.51 0-.51-.51v-3.43c0-.46 0-.5.51-.5s1.44.09 4.82.09v-1.9a22.84 22.84 0 00-.47-5.65 44.73 44.73 0 015 .42c.47 0 .75.23.75.46a2.12 2.12 0 01-.28 1c-.28.56-.42 1.25-.42 3.62v2.08zm10.74-1.39c-4.4 0-5.88.09-6.16.09-.51 0-.55 0-.55-.51V96.7c0-.46 0-.51.55-.51.28 0 1.76.1 6.16.1H991c4.4 0 5.88-.1 6.11-.1.51 0 .55 0 .55.51v3.24c0 .47 0 .51-.55.51-.23 0-1.71-.09-6.11-.09zm10.14 2.45c3.94 0 5.23-.14 5.56-.14s.5 0 .5.51c0 .28-.09 1-.09 3.06v3.93c0 2 .09 2.83.09 3.06 0 .46 0 .51-.5.51s-1.62-.09-5.56-.09h-8.15c-3.89 0-5.23.09-5.55.09s-.51 0-.51-.51c0-.28.09-1 .09-3v-3.93c0-2-.09-2.74-.09-3.06s0-.51.51-.51 1.66.09 5.55.09zm-12.08 20.61h5.83V120h-5.83zm5.83 7.31v-3.66h-5.83v3.66zm7.82-24.35h-11.34v3.7h11.34zM986.63 120v3.43h6V120zm6 10.74v-3.66h-6v3.66zM1008.82 120a53 53 0 01-4.08 3.75c-.46.37-.74.56-.93.56s-.41-.33-.69-1a13.64 13.64 0 00-1.57-3.29 31.53 31.53 0 0011.57-14h-4.91c-3.38 0-4.49.09-4.76.09-.47 0-.51 0-.51-.51v-3.43c0-.46 0-.5.51-.5.27 0 1.38.09 4.76.09h.56v-2a29.7 29.7 0 00-.37-5.51c1.76 0 3.19.14 4.81.33.47 0 .74.27.74.46a2.12 2.12 0 01-.27 1c-.28.56-.28 1.53-.28 3.84v2h1a2.48 2.48 0 001.2-.23 2 2 0 01.74-.28c.37 0 .6 0 1.67 1.11s1.43 1.57 1.43 1.85-.18.51-.51.79a3.86 3.86 0 00-1.25 1.85 40.85 40.85 0 01-3.33 6.16 24.56 24.56 0 006.48 5.79 14.44 14.44 0 00-2.36 3.19c-.28.46-.42.69-.65.69s-.51-.23-1-.69a27.55 27.55 0 01-3.42-4v11.58c0 3.42.09 6.39.09 6.62 0 .46 0 .51-.55.51h-3.71c-.46 0-.51 0-.51-.51 0-.28.1-3.2.1-6.62zm13.93 15.23c-4.49 0-6.06.09-6.34.09s-.47 0-.47-.51v-3.61c0-.46 0-.51.47-.51.23 0 1.48.1 4.72.1v-18.53a50.15 50.15 0 00-.37-7.13 37 37 0 015 .46c.46.09.74.33.74.56a2.43 2.43 0 01-.33 1c-.23.55-.28 1.71-.28 5.09v18.57h4.22v-28.37a46.8 46.8 0 00-.46-8c1.71 0 3.56.23 5.13.42.51 0 .79.27.79.51a2.42 2.42 0 01-.32 1c-.23.55-.33 2-.33 6v7.91h4.08c2.64 0 3.42-.09 3.7-.09.46 0 .51 0 .51.51v3.66c0 .46 0 .51-.51.51-.28 0-1.06-.1-3.7-.1h-4v16h3.15c4.54 0 6-.1 6.3-.1.51 0 .55 0 .55.51v3.61c0 .47 0 .51-.55.51-.28 0-1.76-.09-6.3-.09zM1051.14 106.89c.33-.42.51-.47.93-.23a40.49 40.49 0 016.71 4.76.48.48 0 01.23.42.76.76 0 01-.23.51l-2.08 2.82c-.23.33-.37.47-.51.47s-.23-.09-.42-.23a34.84 34.84 0 00-6.66-5.14c-.19-.14-.28-.23-.28-.37s.09-.28.28-.51zm0 23a73.29 73.29 0 004.26-11.15 26.09 26.09 0 002.68 2.31c.75.51 1 .74 1 1.16a5.56 5.56 0 01-.23 1.06 101.12 101.12 0 01-3.94 10.47 14.24 14.24 0 00-.7 1.8c-.09.37-.27.6-.55.6a1.68 1.68 0 01-.83-.23 27.25 27.25 0 01-3.8-2.54 16.1 16.1 0 002.16-3.43zm2-34.67c.37-.47.51-.47.88-.23a40.33 40.33 0 016.66 4.9c.33.28.37.42 0 1l-2.09 2.82c-.32.46-.41.51-.83.18a33.74 33.74 0 00-6.67-5.37c-.41-.23-.41-.32 0-.83zm13.61 23.1c-4.54 0-6.16.09-6.44.09-.46 0-.51 0-.51-.55v-3.62c0-.46 0-.5.51-.5.28 0 1.9.09 6.44.09h5.32v-6.76H1069c-4.45 0-6 .09-6.21.09-.46 0-.51 0-.51-.51v-3.56c0-.47 0-.51.51-.51.23 0 1.76.09 6.21.09h3.19v-2a45.05 45.05 0 00-.32-6.15c1.76 0 3.38.13 4.91.27.46 0 .74.28.74.56a2.74 2.74 0 01-.23.93c-.24.55-.33 1.62-.33 4.25v2.18h5c4.44 0 6-.09 6.25-.09.46 0 .51 0 .51.51v3.56c0 .47 0 .51-.51.51-.28 0-1.81-.09-6.25-.09h-5v6.76h7c4.53 0 6.15-.09 6.43-.09s.46 0 .46.5v3.62c0 .51 0 .55-.46.55s-1.9-.09-6.43-.09h-9.31a114.44 114.44 0 01-4.07 10.88c4.07-.37 7.73-.79 11.48-1.34a69.48 69.48 0 00-3.38-4.54c-.33-.42-.28-.56.28-.88l2.49-1.48c.47-.28.61-.23.93.09a59.93 59.93 0 018.2 12c.23.46.23.5-.33.88l-2.87 1.71a1.35 1.35 0 01-.6.28c-.14 0-.23-.14-.32-.37-.65-1.25-1.3-2.5-2-3.75-6.85 1.15-12.91 1.94-20.41 2.68a4.53 4.53 0 00-1.72.42 1.45 1.45 0 01-.83.32c-.37 0-.6-.28-.74-.74a41.76 41.76 0 01-1-4.58 48.42 48.42 0 004.86-.19 4.59 4.59 0 00.74 0 72.85 72.85 0 004.17-11.3zM1134.58 134.62c-.37.79-.51 1.11-.84 1.11s-.51-.18-1.06-.55a36.91 36.91 0 01-16.35-22.18 34.48 34.48 0 01-16.76 22.18 2.85 2.85 0 01-1.06.46c-.32 0-.51-.32-.93-1.11a12.65 12.65 0 00-2.68-3.1c12.18-5.65 18.1-17.22 18-30.19-.05-2-.09-4-.33-6 1.81.09 4 .32 5.7.55.6.09.88.37.88.74a2 2 0 01-.46 1.16 7.54 7.54 0 00-.37 3.06v1.66c2 13.57 7.82 22.55 18.89 28.57a12.38 12.38 0 00-2.63 3.64zM1166.63 118.74c.42.23.47.46.24.83a7.61 7.61 0 00-1.21 3.52c0 2.92 3 4.35 11 4.35a59.19 59.19 0 0012.55-1.34c.65-.14.88 0 1 .42a36.64 36.64 0 01.74 4.53c0 .42-.23.61-.78.7a69.66 69.66 0 01-13.8 1.11c-10.37 0-15.69-3.33-15.69-9.35 0-1.9.69-3.89 2.45-6.62 1.14.6 2.3 1.2 3.5 1.85zm10.47-18.15c3.38 0 6.85-.23 9.81-.42.47 0 .65.14.7.51a30.39 30.39 0 01.23 3.94c0 .65-.23.92-.79 1a27.07 27.07 0 00-11.34 4.58 2 2 0 01-1.16.42 1.89 1.89 0 01-1-.28 11.18 11.18 0 00-3.24-1.48c2.4-1.57 4.44-2.87 6.06-3.84a31.51 31.51 0 01-3.79.14 58.49 58.49 0 01-8.11-.79c-.41-.09-.6-.28-.6-.83 0-1.11.09-2.46.19-4.12a58.62 58.62 0 0013.04 1.17zM1214.19 117.26a82.11 82.11 0 01-9.54-.19c-.51 0-.69-.18-.74-.78a27 27 0 01-.28-3.94 64.69 64.69 0 0010.42.37c0-1.76 0-3.56-.09-5.32a76.17 76.17 0 01-11.07-.23c-.51 0-.74-.19-.79-.65-.13-1.16-.23-2.27-.32-4.17a106.59 106.59 0 0012.13.46c0-1.71-.05-2.91-.09-4.49a13.22 13.22 0 00-.56-3.1 27.37 27.37 0 015.84.83 1 1 0 01.51 1.39 6 6 0 00-.7 2.23c-.05.92-.05 1.57-.09 3a80.05 80.05 0 0010.14-1.39c.55-.14.74 0 .78.55a24.25 24.25 0 01.24 3.38c0 .61-.14.7-.51.75a96.67 96.67 0 01-10.7 1.2v5.23c3.52-.23 5.74-.69 9.07-1.2.56-.14.7-.05.74.37 0 .88.14 2.4.14 3.79 0 .47-.18.61-.69.65a82 82 0 01-9.08 1.11c.1 2.13.19 4.4.33 6.53a41.49 41.49 0 0112.27 5.6c.46.42.46.56.32 1.11a13.79 13.79 0 01-2 3.43.67.67 0 01-.6.37.74.74 0 01-.51-.23 36.84 36.84 0 00-9.21-5.28c0 5-3.06 7-9.4 7-6 0-9.44-2.64-9.44-6.48s3.65-6.58 9.26-6.58a43.8 43.8 0 014.44.19c-.08-2.04-.18-3.94-.22-5.51zm-4 9.35c-3.38 0-5 1-5 2.45 0 1.21 1.39 2.09 4.58 2.09 1.85 0 3.56-.56 4.21-1.39a4.45 4.45 0 00.51-2.59 19.59 19.59 0 00-4.28-.56zM1263 98.88a1.12 1.12 0 01.37.74.93.93 0 01-.65.88 8.78 8.78 0 00-2.22 1.62c-4 3.56-9.07 8.33-12.64 12-.41.51-.6.78-.6 1s.19.51.6.84a129 129 0 0117.23 14.58 1.14 1.14 0 01.32.6c0 .19-.09.33-.32.56-1.07 1.16-2.41 2.5-3.2 3.19-.28.24-.46.37-.65.37s-.32-.13-.55-.41a116.82 116.82 0 00-16.85-15.65c-1.76-1.34-2.46-2.36-2.46-3.89s.83-2.55 2.27-4.07c3.93-4.26 7.78-8.11 11.76-12.46a13.37 13.37 0 002.5-3.47 36 36 0 015.09 3.57zM1287.16 100a15.38 15.38 0 00-2.31-3.75 36 36 0 015.51-.74c1.2 0 1.57.32 1.57 1a6.29 6.29 0 000 1.3 19.74 19.74 0 00.74 2.31c.55 1.39 1 2.5 1.57 3.75A70.25 70.25 0 001304 101c.46-.23.6-.18.88.32a20.74 20.74 0 011.16 3.57c.13.46 0 .69-.37.79a75.29 75.29 0 01-9.22 2.68 52.6 52.6 0 007.09 9.77 11.74 11.74 0 001.2 1c.28.23.46.37.46.6a1.44 1.44 0 01-.28.79 18.42 18.42 0 01-1.8 3c-.37.51-.6.69-.93.69s-.37-.09-.74-.37a15.6 15.6 0 00-1.9-1.2 21.07 21.07 0 00-9.81-2.36c-4.82 0-7.73 1.43-7.73 4.35 0 3.47 4.21 4.91 11.48 4.91a45.47 45.47 0 007.41-.65 28.1 28.1 0 01-1 5c-.13.47-.32.56-.88.65a41.13 41.13 0 01-5.13.32c-10.93 0-16.81-3.47-16.81-9.58 0-5.28 4.54-9 12.18-9a23.73 23.73 0 018.24 1.25 29.81 29.81 0 01-6-8.19c-2.92.5-5.61.87-8.94 1.15-1.25.1-3.38.23-4.54.23-.41 0-.6-.27-.74-.83a36.55 36.55 0 01-1.06-4.17 56.24 56.24 0 005.78 0 65.14 65.14 0 007.32-.88c-.77-1.75-1.42-3.09-2.16-4.84zM1325.16 101.75a1.47 1.47 0 00.88-.19 1 1 0 01.55-.28c.37 0 .83.28 2 1.3s1.25 1.25 1.25 1.58a1.1 1.1 0 01-.56 1 4.62 4.62 0 00-1.11 1.72 41.61 41.61 0 01-3.66 6.66 27.27 27.27 0 005.09 4.45v-1.34c0-.47 0-.51.51-.51.27 0 1.76.09 6.15.09h11.76c4.31 0 5.84-.09 6.16-.09s.46 0 .46.51v19.16c0 .42 0 .47-.46.47h-3.52c-.46 0-.51 0-.51-.47v-1.34H1334v1.58c0 .46 0 .5-.55.5H1330c-.47 0-.51 0-.51-.5 0-.28.09-1.63.09-8.89v-4.36-4.58a11.26 11.26 0 00-2 3.38c-.14.32-.24.51-.42.51s-.51-.28-1-.79a21.89 21.89 0 01-2.31-2.87v10.85c0 3.42.09 6.62.09 6.85 0 .46 0 .51-.56.51h-3.65c-.51 0-.56 0-.56-.51 0-.28.09-3.43.09-6.85V120c-1.06 1.06-2.17 2.13-3.33 3.19-.46.42-.79.65-1 .65s-.37-.28-.51-.74a12.89 12.89 0 00-1.62-3.75 29.66 29.66 0 0010.83-13.35h-4.49c-3.38 0-4.49.09-4.77.09-.46 0-.51 0-.51-.51v-3.43c0-.46.05-.5.51-.5s1.43.09 4.81.09v-1.9a22.88 22.88 0 00-.46-5.65 44.93 44.93 0 015 .42c.46 0 .74.23.74.46a2.12 2.12 0 01-.28 1c-.27.56-.41 1.25-.41 3.62v2.08zm10.74-1.39c-4.4 0-5.88.09-6.16.09-.51 0-.56 0-.56-.51V96.7c0-.46 0-.51.56-.51.28 0 1.76.1 6.16.1h12.54c4.4 0 5.88-.1 6.11-.1.51 0 .56 0 .56.51v3.24c0 .47 0 .51-.56.51-.23 0-1.71-.09-6.11-.09zm10.14 2.45c3.93 0 5.23-.14 5.55-.14s.51 0 .51.51c0 .28-.09 1-.09 3.06v3.93c0 2 .09 2.83.09 3.06 0 .46 0 .51-.51.51s-1.62-.09-5.55-.09h-8.15c-3.89 0-5.23.09-5.56.09s-.51 0-.51-.51c0-.28.1-1 .1-3v-3.93c0-2-.1-2.74-.1-3.06s0-.51.51-.51 1.67.09 5.56.09zM1334 123.42h5.84V120H1334zm5.84 7.31v-3.66H1334v3.66zm7.82-24.35h-11.34v3.7h11.34zm-3.61 13.62v3.43h6V120zm6 10.74v-3.66h-6v3.66zM1366.23 120a54.75 54.75 0 01-4.07 3.75c-.47.37-.75.56-.93.56s-.42-.33-.7-1A13.28 13.28 0 001359 120a31.53 31.53 0 0011.57-14h-4.9c-3.38 0-4.49.09-4.77.09-.46 0-.51 0-.51-.51v-3.43c0-.46.05-.5.51-.5.28 0 1.39.09 4.77.09h.55v-2a29.7 29.7 0 00-.37-5.51c1.76 0 3.2.14 4.82.33.46 0 .74.27.74.46a2.12 2.12 0 01-.28 1c-.28.56-.28 1.53-.28 3.84v2h1a2.54 2.54 0 001.21-.23 1.84 1.84 0 01.74-.28c.37 0 .6 0 1.66 1.11s1.44 1.57 1.44 1.85-.19.51-.51.79a3.79 3.79 0 00-1.25 1.85 42.72 42.72 0 01-3.33 6.16 24.4 24.4 0 006.48 5.79 14.13 14.13 0 00-2.36 3.19c-.28.46-.42.69-.65.69s-.51-.23-1-.69a27 27 0 01-3.43-4v11.58c0 3.42.1 6.39.1 6.62 0 .46-.05.51-.56.51h-3.7c-.47 0-.51 0-.51-.51 0-.28.09-3.2.09-6.62zm13.93 15.23c-4.49 0-6.06.09-6.34.09s-.46 0-.46-.51v-3.61c0-.46.05-.51.46-.51.23 0 1.48.1 4.72.1v-18.53a50.15 50.15 0 00-.37-7.13 36.85 36.85 0 015 .46c.46.09.74.33.74.56a2.42 2.42 0 01-.32 1c-.23.55-.28 1.71-.28 5.09v18.57h4.21v-28.37a46.8 46.8 0 00-.46-8c1.71 0 3.56.23 5.14.42.51 0 .79.27.79.51a2.43 2.43 0 01-.33 1c-.23.55-.32 2-.32 6v7.91h4.07c2.64 0 3.43-.09 3.71-.09.46 0 .5 0 .5.51v3.66c0 .46 0 .51-.5.51-.28 0-1.07-.1-3.71-.1h-4.07v16h3.15c4.53 0 6-.1 6.29-.1.51 0 .56 0 .56.51v3.61c0 .47-.05.51-.56.51-.28 0-1.76-.09-6.29-.09zM1417.74 108.88a54.4 54.4 0 01-8.38 5 3 3 0 01-1.11.41c-.32 0-.46-.32-.83-1.15a10.92 10.92 0 00-2.09-3.06c8.06-3.19 14.08-8.1 17.78-13.47a14 14 0 001.62-3 36.08 36.08 0 015 1c.56.14.83.33.83.65a.75.75 0 01-.46.74 4.07 4.07 0 00-.65.42c5.24 6.39 11.48 10.41 19.59 13.24a13.73 13.73 0 00-2 3.47c-.33.83-.47 1.16-.79 1.16a3.25 3.25 0 01-1.07-.37 51.42 51.42 0 01-8.84-4.91v3.43c0 .46 0 .51-.51.51-.28 0-1.53-.1-5.23-.1h-7.13c-3.7 0-5 .1-5.23.1-.46 0-.51 0-.51-.51zm-3 12.54c-4.36 0-5.84.1-6.11.1-.51 0-.56 0-.56-.51v-3.47c0-.47.05-.51.56-.51.27 0 1.75.09 6.11.09h24.67c4.36 0 5.84-.09 6.12-.09.51 0 .55 0 .55.51V121c0 .46 0 .51-.55.51-.28 0-1.76-.1-6.12-.1h-14.3a87.58 87.58 0 01-4.12 8.71c4.81-.28 9.86-.7 14.26-1.16-1.07-1.29-2.13-2.59-3.38-3.93-.33-.37-.28-.56.27-.84l3-1.53c.51-.27.65-.23 1 .1a80.77 80.77 0 018.61 10.74c.23.37.23.55-.23.88l-3.19 2.08c-.28.19-.42.28-.56.28s-.23-.09-.37-.32c-.79-1.3-1.57-2.5-2.31-3.62-7.69 1-17.14 1.76-25 2.37a4.05 4.05 0 00-1.66.41 1.16 1.16 0 01-.79.28c-.32 0-.56-.23-.65-.65-.42-1.53-.69-3.15-1-4.77a35.46 35.46 0 005 0h1.48a74.56 74.56 0 004.07-9zm15.83-12.91c3.1 0 4.49-.05 5-.09a42.39 42.39 0 01-8.75-8.48 43.34 43.34 0 01-8.47 8.48c.42 0 1.71.09 5.09.09zM261.39 84.85a3.16 3.16 0 01-.24 1.19 18.85 18.85 0 00-1.35 7.29 8.26 8.26 0 004.2 7.3c4 2.14 9.68 2.85 15.39 2.85a48.77 48.77 0 0014-1.66 24.39 24.39 0 015-.64c4.68 0 6.26 2.46 6.26 4.2s-2 3.65-4.68 4.13a75.09 75.09 0 01-8.17 1c-3.88.31-7.77.39-10.23.39a43.08 43.08 0 01-15-2.61 17.14 17.14 0 01-7.37-5.55c-1.83-2.3-2.38-4.6-2.38-8a18.17 18.17 0 013.18-9.81c.32-.47.63-.71.95-.71s.44.31.44.63zm.95-25.37c1.66 2.22 5.15 3.33 12.45 3.33a41.89 41.89 0 0013.41-2.22 14.8 14.8 0 012.93-.39 12.14 12.14 0 013.25.39c2.38.64 3.89 1.59 4 3.57.08 1.59-.48 2.38-2.14 3a26.37 26.37 0 01-5.24.72A63.7 63.7 0 00279.23 70a48.62 48.62 0 00-10.31 4.36 12.25 12.25 0 01-2.54 1.27c-.39 0-.55-.08-.55-.48s2.22-2.3 7.37-6.42a16.69 16.69 0 01-8.64-3.09c-2.06-1.59-3.73-4.76-3.73-6.11 0-.55.24-.79.64-.79s.63.43.87.74zM327.36 73.12a11 11 0 01-10.47-6.34 2.37 2.37 0 01-.4-1 .77.77 0 01.72-.72c.31 0 .39.16.71.48 1.9 2.06 5 2.85 9.84 2.85 4.12 0 10.23-.87 16.26-1.82v-7.8c0-2.3-.08-3.33-.72-4a4.5 4.5 0 00-2.22-1 12.3 12.3 0 00-1.82-.32c-.32 0-.48-.16-.48-.56s.32-.87 1-1.5a5.08 5.08 0 013.18-1.35 12.06 12.06 0 016.1 2c2.86 1.67 3.41 3.09 3.41 4a3 3 0 01-1.11 2.22 3.85 3.85 0 00-1.5 3c-.16 1.9-.32 2.93-.4 4.36 3-.48 5.47-1 7.77-1.43a17.4 17.4 0 004.52-1.43c.8-.47 1.35-.79 3.89-.79 2.93 0 5.71 2.06 5.71 4 0 2.38-1 2.86-5.23 3.25-5.4.48-11.82 1.11-16.9 1.83-.08 3.8-.08 7.69 0 11.89a33.51 33.51 0 006.9-1.67c1.11-.47.95-1 .32-2.53a23 23 0 00-1.82-3c-.32-.71.15-1 .87-.47 1.43 1 3 2.06 4.36 2.85a4.5 4.5 0 002.93.72c2.38 0 3.73 1 3.73 2.85 0 1.66-1.74 2.38-4.28 3.33a65 65 0 01-12.85 3.25c.08 3.41.56 9.12.79 12.29 6.51 1.5 12.38 4.83 16 7 2.54 1.51 4.76 3.33 4.76 6.27a3.28 3.28 0 01-3 3.48 4.09 4.09 0 01-2.93-1.27c-6-5.31-10.39-8.08-14.28-9.59.39 7.22-3.25 11.81-12.38 11.81-2.85 0-7.13-.55-10.07-2.69a8.19 8.19 0 01-3.8-6.9c0-2.53 1.5-4.67 4-6.34 1.9-1.27 4.36-1.9 7.54-2.38a50.18 50.18 0 018.48-.08c0-3.72-.08-7.53-.23-10.94-2.07.16-5.08.16-6.43.16-7.85 0-11.34-2.61-11.34-6.58 0-2.93 1.74-5.15 3-6.58a26.26 26.26 0 013.82-2.93c-1.31 0-3.97.12-5.95.12zm8 30.76a15.12 15.12 0 00-6.11 1.5 4 4 0 00-2 3.25 4.33 4.33 0 002.54 3.57c1.59.87 4 1 6.82 1s5.23-.71 6.58-2.22c1.43-1.66 1.27-4.28 1.27-6.26a29.26 29.26 0 00-9.09-.84zM332 76.37c-1.11 1.27-2.22 2.54-2.22 4.36 0 2 1.74 3.49 6.34 3.49a78.68 78.68 0 007.94-.48c0-4.2 0-7.53-.08-11.73-2.62.32-4.52.63-7.46 1a16.58 16.58 0 00-4.52 3.36zM408.88 56.39a3.1 3.1 0 00-.87-1.82 12.11 12.11 0 00-2.14-1.9c-.4-.24-.71-.48-.71-1 0-.87 1.42-1 2.93-1 3 0 5.71 1.91 8.33 5 1.58 1.9 2 3.17 2 4.44a3.14 3.14 0 01-2.14 2.93c-2.14.79-4.13 1.74-9.44 6-4.12 3.33-10.63 8.64-13.64 11.57-1.11 1.11-2 2.14-2 2.62 0 .79.47 1.19 1 1.82a30.15 30.15 0 004.2 3.33c8.41 5.71 16 11.65 19.51 15.7 3.81 4.43 4.6 6.73 4.6 8.72a5.72 5.72 0 01-.87 3.56c-.63.87-1.51 1.27-3.25 1.27-.87 0-2.38-1-4.21-3.88-4.76-7.46-11.89-15.38-22.44-24-2.54-2.06-3.41-3.89-3.41-5.63a6 6 0 011.58-4.2c1.11-1.43 4.05-4.44 10.55-10.86 2.07-2.07 4.84-5 8.17-8.8 1.86-2.04 2.25-2.92 2.25-3.87zM472.08 65.43a11.27 11.27 0 003.26-1.9 6.1 6.1 0 014.52-1.43c3.49 0 4.6 1.66 4.6 3.25 0 1.11-.8 2.22-4.29 3.49-3.09 1.11-7.21 2.61-12.45 4.28a82.39 82.39 0 006.35 11.73 16 16 0 004.52 4.92c1.35 1.11 2 2.93 2 6 0 2.86-.87 3.81-2.93 3.81-1.27 0-2.22-.56-4.37-2.86-3.41-3.56-11-5.78-15.7-5.78-4.44 0-8 .79-10.47 2.69a7.75 7.75 0 00-3.17 5.87c0 3.64 2.06 5.78 5.79 7.37 3.33 1.43 7.37 1.9 14.12 2a14.77 14.77 0 002.14-.16 9.93 9.93 0 011.74-.16 11.05 11.05 0 015.55 1.51 4 4 0 012.3 3.33c0 1.67-1.5 3.73-7.21 3.73-8.25 0-15.71-1.27-21-4.21-4.6-2.53-8-6.81-8-11.89s3.41-9 7.69-10.94a30.92 30.92 0 0111.58-2.37 82.4 82.4 0 0111.42 1A125 125 0 01463 74.47a68.26 68.26 0 01-14 2.06c-3.64 0-5.31-.32-7.13-1.11-2.3-1-3.89-2.22-6.27-5.16a3.28 3.28 0 01-.87-1.5.69.69 0 01.63-.71c.4 0 1 .55 1.67 1a15.36 15.36 0 009 2.45A73.7 73.7 0 00461 69.23c-1-2.85-2-6.18-3.49-10.54-.63-1.74-1.19-2.3-2.06-2.62a8.59 8.59 0 00-2.3-.39h-1.51c-.47 0-.55-.32-.55-.64a3.69 3.69 0 011.26-2.14 4.6 4.6 0 013.73-1.5 13.39 13.39 0 017.22 2.38 3.39 3.39 0 011.59 2.61 3.53 3.53 0 01-.4 1.43 7.23 7.23 0 00-.24 2.3 34 34 0 001.59 7.61 48.17 48.17 0 006.24-2.3zM547 70a2.82 2.82 0 01-2 2.72c-1.27.56-1.67 1.43-2.46 2.7-5.39 8.48-11.18 16.65-18.32 23.78a69.44 69.44 0 01-25.7 17.28 5.13 5.13 0 01-1.82.48c-.48 0-.8-.16-.8-.72s.4-.79 1.35-1.42a100.22 100.22 0 0023.16-20.3c5.79-7 11.5-14.82 15.63-23.94a2.68 2.68 0 00.23-.79.36.36 0 00-.39-.32c-1.91.24-4.52.87-8 1.51a33.4 33.4 0 01-4.29.79 12.67 12.67 0 01-4.36-1.35 88.2 88.2 0 01-9.44 10.63 75 75 0 01-11.5 8.8A6 6 0 01495.7 91c-.71 0-.95-.31-.95-.87s1.11-1.42 3-3.33a110.7 110.7 0 009.83-11.49c2.22-2.93 4.36-6.11 6.43-9.44 1.34-2.21 2.61-4.75 2.61-6.1s-1.34-2.3-2.85-3.09c-.72-.4-.95-.64-.95-1s1-1.27 2.61-1.27c1.27 0 4.21.63 7.78 2.85 2.46 1.51 2.93 2.54 2.93 3.73a3.56 3.56 0 01-1.74 2.46c-.72.47-1.27 1.19-3.26 4a5.25 5.25 0 001.19.08 55.18 55.18 0 006.19-.87c3.25-.56 5.31-1 6.35-1.27a3.29 3.29 0 001.66-1 3.27 3.27 0 012.06-1.11c1.91 0 3.65.95 6.43 3.49A5.1 5.1 0 01547 70zm4.05-10.78c2.16 1.69 2.95 3.12 2.95 4.78a2.67 2.67 0 01-2.62 2.78 2.84 2.84 0 01-2.69-1.78 29.87 29.87 0 00-5-7c-.32-.32-.87-.72-.87-1 0-.48.39-.56.95-.56a6.82 6.82 0 011.82.32 14.52 14.52 0 015.48 2.49zm7.29-5.47c1.67.95 2.86 2.29 2.86 4a2.66 2.66 0 01-2.46 2.93 3 3 0 01-2.91-1.68 20.23 20.23 0 00-5.56-6.19c-.31-.23-.95-.63-.95-1a.63.63 0 01.64-.63 11 11 0 012.06.24 18.34 18.34 0 016.34 2.36zM575.48 71.45c-.64-.23-1-.31-1-.71s1.5-1.66 3.09-1.66c2.06 0 5.55 1.26 8.41 3.09 2 1.27 2.38 2.38 2.38 3.41a2.39 2.39 0 01-1.11 2.06 5.41 5.41 0 00-1.35 2.69c-1.67 5-3.49 10.15-6.51 14.75a41.16 41.16 0 01-16 14.74 4.78 4.78 0 01-1.58.64c-.48 0-.72-.24-.72-.8s.16-.55.8-1.11A48.46 48.46 0 00573 94.68a62.33 62.33 0 005.47-13.79 21.62 21.62 0 001-5.63c-.03-1.67-1.85-2.93-3.99-3.81zm18.08-5.07c-.39-1-1.66-2.06-3.65-2.85-.63-.24-.95-.32-.95-.88s1.43-1.74 3.33-1.74 4.37 1 7.22 2.78c1.43.87 3.17 2.21 3.17 4a2.89 2.89 0 01-1.11 2.31 2.94 2.94 0 00-.63 1.9c-.16 5.31-.24 10.15-.4 17.92v5.86c0 .72.08 1 .4 1a5.48 5.48 0 001.9-.63c8.73-3.73 16.5-7.53 26.18-15.38 1-.79 1.42-1.27 2-1.27s.79.24.79.71a2.24 2.24 0 01-.63 1.11c-5.32 7.3-14.28 14.83-28 22.92a4 4 0 00-1.59 1.66 2.1 2.1 0 01-1.82 1.11c-1 0-2.62-1-4-2.54a8.58 8.58 0 01-2.22-4.75 5.26 5.26 0 01.24-1.35 23.11 23.11 0 00.4-4.84c0-6.34 0-11.73-.08-21.8a16.23 16.23 0 00-.55-5.25zM698.64 87.78c-2.46 0-7.86-.39-11.74-.39-6.27 0-19.91.32-29.67 1.19-3.8.31-6.74.79-7.85 1.5a3.41 3.41 0 01-2.14.64c-2.06 0-3.89-1.9-6.35-5.47a6.49 6.49 0 01-1.5-4.28c0-1.27.47-1.91 1-1.91.24 0 .63.32 1 .72 2.94 2.85 4.36 3 6.66 3s3.65-.08 8.33-.4c9.84-.63 20.31-1.11 28.08-1.26a15.31 15.31 0 006.17-1.12 5.22 5.22 0 012.22-.64 9.23 9.23 0 013.57.79c3 1.27 5.07 2.46 5.07 4.44a3 3 0 01-2.85 3.19zM724.88 72.72a7.49 7.49 0 00-2.78 1.11 4.46 4.46 0 01-2.3.56c-1.35 0-2.85-1-4.76-3.41-2.14-2.62-2.62-3.73-2.62-5.55 0-1.59.4-2.38.88-2.38s.71.32 1.35 1c2.37 2.62 3.8 3.33 6.89 3.17 2-.08 3.89-.16 5.87-.31 7.78-.72 15.71-1.43 22.93-2.3a7.14 7.14 0 003.57-1.11 3.42 3.42 0 012.06-1c1.58-.08 2.85.55 5.15 2.29 2.86 2.15 3.57 3.26 3.57 5.08a2.56 2.56 0 01-1.69 2.06c-1.83.87-2.54 2.14-3.41 3.8-5.32 9.83-9.52 15.3-15.07 21.09A70 70 0 01718.37 114a4.63 4.63 0 01-1.19.23c-.71 0-1-.16-1-.87 0-.4.4-.71 1.27-1.27a81.78 81.78 0 0022.45-19.66 121.25 121.25 0 0012.37-20.21 6.49 6.49 0 001-2.7c0-.31-.4-.39-.79-.39a32.31 32.31 0 00-3.33.31c-7.93.82-17.22 1.93-24.27 3.28zm50.36-15.3a6.59 6.59 0 11-6.58-6.58 6.56 6.56 0 016.58 6.58zm-10.94 0a4.32 4.32 0 104.36-4.36 4.38 4.38 0 00-4.36 4.36z"/><path class="logosep" d="M825.58 19.69h2.66v120.05h-2.66z"/><path class="logomark" d="M84.83 7.7c1.11-3.33-.09-6.88-2.77-7.58s-5.47 1.79-6.14 5.23L69 40.41c-.16.84.69 1.77 1.9 2.09s2.42-.06 2.69-.89z"/><path class="logomark" d="M67.15 56.78a9.81 9.81 0 014.19 3c8.28 9.08 4.63 20.69 1.26 31-1.65 5-5 12.24-4.8 17.57a16.21 16.21 0 006.38 12.78c6.38 4.56 15.94 5.86 22 .35A35.13 35.13 0 00106.61 103c1.22-6.6.29-14.26-6-18-9.66-5.69-14.19 1.7-14.19 1.7-3.67 4.83-6.89 11.1-5.44 17.38 1.38 6 7.65 4.43 7.54-1.17-.08-3.9-3.49-10.66 2.28-12.4 3.34-1 8.15 1.58 9.53 4.71 1.93 4.38.25 10.65-1.75 14.71-2.83 5.74-8.7 11.27-15.59 9.94-6.07-1.18-10.31-8.57-10.17-14.48C73 98.22 78.23 92 81.67 86c3.78-6.6 7.22-13.38 10.73-20.13 3-5.74 5.78-11.22 5.75-17.88-.05-11.41-15-21.34-24.94-14.24-5.21-11.1-23.06-9.75-28.72.11-3.31 5.78-3.58 11.93-3.8 18.39-.27 7.6-.62 15.2-.57 22.81 0 6.92 1.56 14.92-1.85 21.28-2.8 5.22-10.12 9.56-16 7.59-6.66-2.22-9-9.93-8.68-16.31.26-4.52 1.88-10.81 5.72-13.67 2.74-2 8.2-1.92 10.61.59 4.17 4.35-2.13 8.56-4.13 11.92-2.85 4.82 1.86 9.23 6 4.73 4.35-4.75 4.63-11.79 3.81-17.8 0 0-.29-8.67-11.51-8.47C16.8 65 12.21 71.24 10 77.59a35.13 35.13 0 000 21.16c2.58 7.78 11.53 11.35 19.33 10.53a16.19 16.19 0 0011.84-8c2.79-4.55 3.43-12.46 4.48-17.66C47.81 73 50.35 61.13 62 57.31a9.73 9.73 0 015.12-.53"/><path class="logomark" d="M69.83 81c-3.31 12.57-19.31 38.9-19.31 38.9s-1-30.79 2.36-43.36S61.27 60.1 66 61.33s7.13 7.12 3.83 19.67M113.13 7.7c-1.1-3.33.1-6.88 2.77-7.58s5.47 1.79 6.15 5.23L129 40.41c.17.84-.69 1.77-1.9 2.09s-2.41-.06-2.69-.89z"/><path class="logomark" d="M130.82 56.78a9.81 9.81 0 00-4.19 3c-8.29 9.08-4.64 20.69-1.27 31 1.65 5 5 12.24 4.8 17.57a16.18 16.18 0 01-6.38 12.78c-6.38 4.56-15.93 5.86-22 .35A35 35 0 0191.36 103c-1.23-6.6-.29-14.26 6-18 9.67-5.69 14.19 1.7 14.19 1.7 3.67 4.83 6.9 11.1 5.44 17.38-1.38 6-7.65 4.43-7.54-1.17.08-3.9 3.49-10.66-2.27-12.4-3.34-1-8.16 1.58-9.54 4.71-1.92 4.38-.24 10.65 1.76 14.71 2.83 5.74 8.69 11.27 15.58 9.94 6.08-1.18 10.31-8.57 10.18-14.48C125 98.22 119.73 92 116.3 86c-3.79-6.6-7.23-13.38-10.74-20.13-3-5.74-5.78-11.22-5.75-17.88.06-11.41 15-21.34 25-14.24 5.19-11.1 23-9.79 28.72.11 3.31 5.78 3.57 11.93 3.8 18.39.27 7.6.61 15.2.57 22.81 0 6.92-1.57 14.92 1.85 21.28 2.79 5.22 10.12 9.56 16 7.59 6.66-2.22 9-9.93 8.68-16.31-.26-4.52-1.89-10.81-5.72-13.67-2.75-2-8.21-1.92-10.61.59-4.17 4.35 2.13 8.56 4.12 11.92 2.85 4.82-1.85 9.23-6 4.73-4.36-4.75-4.64-11.79-3.82-17.8 0 0 .3-8.67 11.51-8.47 7.31.12 11.9 6.32 14.08 12.67a35 35 0 010 21.16c-2.57 7.78-11.52 11.35-19.33 10.53a16.21 16.21 0 01-11.84-8c-2.78-4.55-3.43-12.46-4.47-17.66-2.14-10.61-4.68-22.51-16.36-26.33a9.7 9.7 0 00-5.11-.53"/><path class="logomark" d="M128.14 81c3.31 12.57 19.3 38.9 19.3 38.9s1-30.79-2.35-43.36S136.7 60.1 132 61.33s-7.19 7.12-3.88 19.69M0 151.19L4.12 132l2.58.56-2 9.1 6.49-8.13 2.69.57-6.54 8.15 2.42 11L7 152.7l-2.31-10.82-2.11 9.87zM15.59 144.43q.93-5.31 2.62-7.4a4.53 4.53 0 014.62-1.58 4.49 4.49 0 013.79 3q.89 2.52-.05 7.86T24 153.73a4.5 4.5 0 01-4.6 1.56 4.52 4.52 0 01-3.81-3q-.92-2.55 0-7.86zm2.64.41a17.92 17.92 0 00-.34 5.91 2.34 2.34 0 001.93 2.08 2.26 2.26 0 002.46-1.22 18.38 18.38 0 001.66-5.78 18 18 0 00.37-5.92 2.29 2.29 0 00-1.9-2 2.32 2.32 0 00-2.51 1.27 18.1 18.1 0 00-1.67 5.66zM29.69 156.77L34 137.53l2.37.31.84 13.84 4.5-13.12 2.3.31-.91 19.69-2.43-.33 1-13.75-4.42 13.3-1.78-.24-.77-14-2.61 13.55zM46.82 159l6.47-19.1 2.48.24 2.69 20-2.67-.26-.56-3.93-4.46-.44-1.28 3.76zm7.23-14l-2.59 8.29 3.52.34zM62.72 160.42l1.28-19.6 2.63.18-.63 9.28 5.24-9 2.73.18-5.28 9 4 10.59-2.84-.19L66 150.53l-.66 10.06zM76.9 156l.5-14.4 2.61.1-.51 14.61a2.93 2.93 0 00.56 2.1 3.13 3.13 0 003.87.14 3 3 0 00.69-2.07l.51-14.61 2.62.1-.5 14.39a5.93 5.93 0 01-1.39 4.12 5.22 5.22 0 01-4 1.17 5.17 5.17 0 01-3.86-1.41 5.9 5.9 0 01-1.1-4.24zM92.07 158.27a8.4 8.4 0 001.73.86 4.37 4.37 0 001.49.29 2.6 2.6 0 001.93-.69 2.56 2.56 0 00.72-1.89q0-1.72-2.7-4c-.21-.19-.37-.32-.48-.41a10.39 10.39 0 01-2.43-2.69 5.57 5.57 0 01-.68-2.77 5.14 5.14 0 011.44-3.69 4.64 4.64 0 013.51-1.45 6.79 6.79 0 011.76.23 7.23 7.23 0 011.68.68v2.64a6.52 6.52 0 00-1.5-.81 4.08 4.08 0 00-1.44-.27 2.76 2.76 0 00-2 .71 2.66 2.66 0 00-.8 1.99c0 1.13 1 2.48 2.86 4l.42.33a9.51 9.51 0 012.36 2.67 5.72 5.72 0 01.68 2.87 5 5 0 01-1.47 3.7 5 5 0 01-3.69 1.43 6.11 6.11 0 01-1.67-.26 7.82 7.82 0 01-1.74-.75zM103.89 161.76l4.18-19.76 2.48-.05 5 19.53-2.67.06-1-3.84-4.47.09-.83 3.88zm5.54-14.69l-1.6 8.54 3.54-.08zM137 149.74c.05.41.1.81.14 1.2s.07.77.1 1.13q.28 4.31-1 6.46a4.87 4.87 0 01-4.18 2.35 4.62 4.62 0 01-4.5-2c-1-1.49-1.62-4-1.87-7.6s0-6.22.83-7.83a4.71 4.71 0 014.26-2.62 5.57 5.57 0 013.58.79 5.31 5.31 0 012 3l-2.26 1.29a3.89 3.89 0 00-1.16-2.07 2.72 2.72 0 00-2-.56 2.47 2.47 0 00-2.31 1.8 17.33 17.33 0 00-.3 6 16.85 16.85 0 001.11 5.87 2.46 2.46 0 002.53 1.5 2.54 2.54 0 002.22-1.42 7.37 7.37 0 00.51-3.82v-.57c0-.13 0-.25-.05-.35l-2.8.18-.16-2.3zM144.71 150l1 9.54-2.63.27-2-19.54 3.19-.32c2.11-.21 3.66 0 4.63.72a5 5 0 011.74 3.79 5.49 5.49 0 01-.58 3.47 4 4 0 01-2.61 1.72l5.61 9.15-2.82.28-5.44-9.08zm-.15-1.5l.82-.08a2.9 2.9 0 002.19-1 4 4 0 00.4-2.71 3 3 0 00-.86-2.13 3.47 3.47 0 00-2.43-.37l-.74.08zM155.63 148.6c-.48-3.56-.39-6.18.26-7.84a4.52 4.52 0 013.93-2.9 4.48 4.48 0 014.53 1.74c1.07 1.42 1.85 3.93 2.33 7.51s.4 6.17-.26 7.82a4.48 4.48 0 01-3.9 2.88 4.56 4.56 0 01-4.56-1.73c-1.07-1.42-1.85-3.92-2.33-7.48zm2.65-.41a17.76 17.76 0 001.46 5.74 2.34 2.34 0 002.47 1.4 2.26 2.26 0 002-1.91 18.53 18.53 0 00-.16-6 18.22 18.22 0 00-1.44-5.76 2.33 2.33 0 00-4.43.61 17.83 17.83 0 00.1 5.92zM172.49 150.83L170 136.64l2.57-.45 2.51 14.41a3 3 0 001 1.94 3.12 3.12 0 003.81-.66 3 3 0 00.26-2.16l-2.51-14.41 2.58-.45 2.47 14.2a5.85 5.85 0 01-.51 4.31 6.54 6.54 0 01-7.75 1.35 5.91 5.91 0 01-1.94-3.89zM189.49 153.05l-4.1-19.2 3.15-.68a12.16 12.16 0 012.78-.33 4.38 4.38 0 013.57 2 6.6 6.6 0 011 2.41 5.21 5.21 0 01-.67 4.33 6.71 6.71 0 01-4.19 2.33l-.47.09h-.28l1.8 8.46zm.29-11.32l1-.21a3.54 3.54 0 002.32-1.25 3.36 3.36 0 00.22-2.57 3.1 3.1 0 00-1.28-2.16 3.94 3.94 0 00-2.76-.15l-.78.17z"/></svg>