<svg xmlns="http://www.w3.org/2000/svg" viewBox="0 0 27.13 28.82"><defs><style>.a{fill:#fff}</style></defs><path class="a" d="M3.19 8.19v2.79c0 .68-.12 1.15-.42 1.4s-.66.31-1.54.31c-.44 0-.44 0-.54-.42a3.26 3.26 0 00-.35-1 8 8 0 001 .05c.33 0 .43-.12.43-.53V8a4.83 4.83 0 01-.6.21 1.77 1.77 0 00-.5.24.42.42 0 01-.23.08c-.08 0-.14 0-.17-.16A13.15 13.15 0 01.09 7a10.91 10.91 0 001.29-.26 3.35 3.35 0 00.43-.13V4H.38c-.09 0-.14 0-.14-.13v-1c0-.16 0-.17.14-.17h1.43V2a12.69 12.69 0 00-.1-2 12.84 12.84 0 011.43.1c.14 0 .23.07.23.14a.81.81 0 01-.1.31A4.82 4.82 0 003.19 2v.76h1.05c.05 0 .16 0 .16.17v1c0 .14 0 .15-.16.15L3.19 4v2.16l1.14-.46c0 .23-.07.53-.07.87s0 .43-.4.62l-.67.29zm3.43-.26H4.73c-.08 0-.16 0-.16-.16v-1c0-.14 0-.16.16-.16h2.99c0-.35 0-.74-.08-1.23a12.46 12.46 0 011.4.1c.14 0 .21.08.21.15a1.29 1.29 0 01-.1.35 2.51 2.51 0 00-.05.63h3.46c.09 0 .16 0 .16.16v1c0 .14 0 .16-.16.16H9.67a8.84 8.84 0 003.4 2.69 3.2 3.2 0 00-.59 1c-.1.23-.14.33-.24.33a.91.91 0 01-.33-.17 8.66 8.66 0 01-2.86-2.9c0 1.43.07 3.39.07 3.75 0 .14 0 .16-.16.16H7.85c-.14 0-.16 0-.16-.16 0-.36.06-2.29.08-3.73a8.87 8.87 0 01-2.93 2.84.62.62 0 01-.3.15c-.08 0-.14-.1-.28-.32a3.6 3.6 0 00-.64-.78A8.45 8.45 0 007 7.93zm5.56-7a.41.41 0 01.12.28.2.2 0 01-.22.19 3.34 3.34 0 00-.72.14 32.68 32.68 0 01-5.88 1c-.46 0-.46 0-.59-.39a3.59 3.59 0 00-.37-.86 28.33 28.33 0 005.59-.77 5.78 5.78 0 001.13-.41 7.37 7.37 0 01.94.89zM5.83 3.07C6 3 6 3 6.11 3.12A8.32 8.32 0 017 4.86C7 5 7 5 6.83 5.13L6 5.46c-.17.09-.22.09-.26 0A8.3 8.3 0 005 3.61c-.08-.12-.06-.16.11-.23zm2.55-.48c.2-.07.21 0 .3.07a9.9 9.9 0 01.72 1.81c.06.15 0 .18-.16.25L8.41 5c-.18 0-.22 0-.27-.11a8.93 8.93 0 00-.67-1.8c0-.12 0-.15.14-.21zm2.37.52a5.76 5.76 0 00.18-.78 8.37 8.37 0 011.26.43c.16.07.24.13.24.21s0 .11-.13.2a1.63 1.63 0 00-.32.46 14.89 14.89 0 01-1 1.85c-.14.21-.19.29-.28.29a.82.82 0 01-.35-.15 6.26 6.26 0 00-.73-.33 9.75 9.75 0 001.13-2.18zM26.09 9.26v1.93a1.36 1.36 0 01-.46 1.14c-.27.23-.69.36-1.85.36-.43 0-.42 0-.52-.41a3.62 3.62 0 00-.39-1.06c.57 0 .84.06 1.3.06s.45-.14.45-.47V8.49h-3.26V12.23c0 .07 0 .15-.16.15H20c-.14 0-.16 0-.16-.15V8.49h-3.13a8.92 8.92 0 01-1.22 3.88c-.11.19-.18.28-.25.28s-.14-.07-.3-.23a3.82 3.82 0 00-1-.71c1-1.32 1.44-3 1.44-6.36v-2.3V.76c0-.08 0-.17.17-.17H25.94c.1 0 .15 0 .15.17v2.29zM19.9 7.19v-2h-3v1.98zm0-3.28V2h-3v2zM21.36 2v2h3.29V2zm3.29 5.23v-2h-3.29v2zM1.35 19.05c.18.05.21.07.2.23a12.36 12.36 0 01-.48 3.07c0 .14-.07.12-.22 0l-.68-.28C0 22.05 0 22 0 21.84A11.73 11.73 0 00.47 19c0-.14 0-.13.22-.09zm.56-1A12.7 12.7 0 001.8 16c.53 0 1 0 1.44.1.14 0 .22.07.22.14a.71.71 0 01-.06.28 5.51 5.51 0 00-.1 1.56V28.66c0 .07 0 .17-.16.17H2c-.14 0-.16 0-.16-.17v-2.43zm2.09.4c.16-.05.2 0 .26.09a9.86 9.86 0 01.57 1.66c0 .14 0 .17-.15.24l-.59.21c-.18.07-.22.07-.25-.08a10.33 10.33 0 00-.52-1.7c-.06-.15 0-.18.14-.24zm2.57 3.2H4.68c-.14 0-.15 0-.15-.16v-.79c0-.14 0-.16.15-.16h3.09v-.64H5.3c-.1 0-.15 0-.15-.16v-.7c0-.14 0-.16.15-.16H7.77v-.63H4.99c-.09 0-.15 0-.15-.16v-.75c0-.16 0-.17.15-.17H7.77c0-.49 0-.89-.1-1.38.52 0 .91.05 1.38.1.16 0 .23.09.23.14a1.44 1.44 0 01-.1.37 3.06 3.06 0 00-.06.77h3.18c.08 0 .17 0 .17.17v.75c0 .14 0 .16-.17.16H9.12V19h2.75c.09 0 .15 0 .15.16v.7c0 .15 0 .16-.15.16H9.12v.64h3.63c.07 0 .16 0 .16.16v.79c0 .16 0 .16-.16.16H6.59zm5.17 3.61v1.95a1.46 1.46 0 01-.36 1.17c-.24.21-.57.33-1.6.35-.43 0-.44 0-.54-.43a3.37 3.37 0 00-.24-.87h.95c.4 0 .49-.14.49-.42v-.56H6.6v2.16c0 .07 0 .17-.17.17H5.37c-.15 0-.17 0-.17-.17v-4.72-1.52c0-.09 0-.16.17-.16h6.26c.1 0 .15 0 .15.16v1.64zm-5.16-2V24h3.8v-.7zm3.8 2.27v-.69H6.6v.69zM16.74 19.78v-1.1H14.85c-.08 0-.16 0-.16-.15v-.88c0-.13 0-.14.16-.14H16.74a9.27 9.27 0 00-.1-1.54 13.31 13.31 0 011.38.09c.16 0 .23.07.23.14a.61.61 0 01-.08.26 1.47 1.47 0 00-.09.7v.38h1.82c.08 0 .14 0 .14.14v.88c0 .14 0 .15-.14.15h-1.82v1.1H20.22c.08 0 .16 0 .16.17v.87c0 .14 0 .15-.16.15H14.36c-.07 0-.17 0-.17-.15v-.87c0-.15 0-.17.17-.17H16zm0 5.4V24h-2.38c-.07 0-.15 0-.15-.16V23c0-.14 0-.16.15-.16h3.3c.16-.4.32-.82.44-1.23a3.94 3.94 0 00.14-.66 10.19 10.19 0 011.18.28c.14 0 .2.09.2.16a.2.2 0 01-.1.16.75.75 0 00-.18.27c-.16.39-.27.66-.45 1h1.34c.08 0 .16 0 .16.16v.87c0 .15 0 .16-.16.16h-2.17v1.15H19.97c.09 0 .15 0 .15.15v.87c0 .14 0 .15-.15.15H18.06v2.36c0 .07 0 .16-.16.16h-1.04c-.14 0-.15 0-.15-.16V26.3H14.7c-.09 0-.15 0-.15-.15v-.85c0-.14 0-.15.15-.15h1.54zM16 22.85c-.19.06-.21 0-.26-.1a8.62 8.62 0 00-.46-1.23c-.07-.15 0-.17.13-.23l.77-.23c.15 0 .2 0 .25.09a7.54 7.54 0 01.48 1.22c0 .14 0 .19-.14.24zm9.1-1.79a.79.79 0 00.39-.06.39.39 0 01.21-.06c.09 0 .2 0 .54.38s.39.45.39.55a.33.33 0 01-.1.24 1 1 0 00-.24.53 13.27 13.27 0 01-1.13 3.24 9.57 9.57 0 002 1.62 3.4 3.4 0 00-.55.95c-.09.21-.15.31-.23.31s-.14-.05-.28-.15a13 13 0 01-1.69-1.52 11.94 11.94 0 01-1.19 1.42c-.14.12-.21.2-.28.2s-.14-.1-.25-.3a3.42 3.42 0 00-.6-.83v1.08c0 .08 0 .14-.16.14h-1.07c-.16 0-.17 0-.17-.14v-8.92-3c0-.13 0-.16.17-.16h5.57c.08 0 .2.05.18.19s0 .47 0 .71a6 6 0 01-.31 2.1c-.26.55-.66.74-1.52.74H24c-.32 0-.33 0-.39-.36a5.08 5.08 0 00-.22-.9 7.18 7.18 0 001.09.08c.36 0 .5-.08.59-.36a3.25 3.25 0 00.1-.87h-3.1v3.17zm-3 6.48A9.32 9.32 0 0023.53 26a10.14 10.14 0 01-1.37-3.64h-.1zm1.27-5.22a9.24 9.24 0 00.94 2.39 11.17 11.17 0 00.69-2.39z"/></svg>