<svg xmlns="http://www.w3.org/2000/svg" viewBox="0 0 68.92 14.98"><defs><style>.a{fill:#fff}</style></defs><path class="a" d="M10.72 2.34A6.91 6.91 0 0011.4 0a7.43 7.43 0 011.66.86.33.33 0 010 .56 3.79 3.79 0 00-.86 1.22 31.69 31.69 0 01-2.56 4.42 22.82 22.82 0 013.12 2.8c.14.16.12.24 0 .38a8.64 8.64 0 01-.68.78c-.14.14-.24.12-.36 0A19.85 19.85 0 008.86 8.2a27.54 27.54 0 01-7.16 6.66c-.2.12-.4.18-.58 0a2.82 2.82 0 00-1.12-.6 25 25 0 007.74-6.9 29.66 29.66 0 00-4-2.44c.3-.38.58-.76.76-1s.18-.08.32 0A39.53 39.53 0 018.54 6.2a26.76 26.76 0 002.18-3.86zM21.68 12.36c-1.4 0-2.64 0-3.72.1-.22 0-.28-.06-.32-.28s-.08-.8-.1-1.34c1.34.1 2.62.12 4.14.12h6.52c1.66 0 3.24 0 4.52-.08.24 0 .3.06.3.26a7.69 7.69 0 010 1c0 .24-.06.3-.3.3h-4.46zM23.4 4c-1.12 0-2.12 0-3.1.08-.2 0-.26-.06-.28-.3 0-.4-.08-.86-.08-1.3 1.24.1 2.3.12 3.44.12h3.22c1.36 0 2.52 0 3.62-.08.16 0 .22.06.22.24a8.68 8.68 0 010 1c0 .22-.06.26-.24.26h-3.56zM47.4 12.7h2.54c.24 0 .3 0 .32.26v.72c0 .26-.06.26-.28.26h-9.7c-.8 0-1.7 0-2.56.1-.22 0-.26-.06-.28-.3a5.49 5.49 0 01-.08-1c1.12.08 1.94.08 2.86.08H45l.76-5.54H42.4c-.76 0-1.68 0-2.34.06-.2 0-.28 0-.3-.24s-.08-.74-.1-1.1c1.12.1 2 .12 2.8.12h2.92a1.36 1.36 0 00.8-.16.36.36 0 01.42 0 3.56 3.56 0 01.74.72.31.31 0 010 .48c-.18.16-.24.32-.28.76l-.76 4.78zM56.9 8.2a16.36 16.36 0 00-2.7.2c-.18 0-.28-.08-.34-.28a11.82 11.82 0 01-.2-1.52 36.53 36.53 0 004.42.18h6.14c1.38 0 2.86 0 4.38-.06.24 0 .3 0 .3.24a9 9 0 010 1c0 .22-.06.26-.3.24h-4.32z"/></svg>