<svg xmlns="http://www.w3.org/2000/svg" viewBox="0 0 291.28 60.86"><defs><style>.a{fill:#231815;}.b{fill:#a89471;}</style></defs><path class="a" d="M98.21,31.88a1.2,1.2,0,0,1-.09.45,7,7,0,0,0-.51,2.74,3.11,3.11,0,0,0,1.58,2.74A12.85,12.85,0,0,0,105,38.88a18.14,18.14,0,0,0,5.25-.63A9.87,9.87,0,0,1,112.1,38c1.75,0,2.35.92,2.35,1.57s-.74,1.37-1.76,1.55a26.93,26.93,0,0,1-3.07.39c-1.46.12-2.92.15-3.84.15a16.23,16.23,0,0,1-5.63-1,6.45,6.45,0,0,1-2.78-2.09,4.39,4.39,0,0,1-.89-3,6.85,6.85,0,0,1,1.22-3.69q.18-.27.36-.27C98.18,31.64,98.21,31.76,98.21,31.88Zm.36-9.53c.62.83,1.93,1.25,4.68,1.25a15.93,15.93,0,0,0,5-.83,5.41,5.41,0,0,1,1.1-.15,4.51,4.51,0,0,1,1.23.15c.89.23,1.46.59,1.49,1.34,0,.59-.18.89-.81,1.13a9.91,9.91,0,0,1-2,.27,24.2,24.2,0,0,0-4.41.8A18.74,18.74,0,0,0,101,28a4.56,4.56,0,0,1-1,.48c-.15,0-.21,0-.21-.18s.83-.87,2.77-2.42a6.25,6.25,0,0,1-3.25-1.16A4,4,0,0,1,98,22.38c0-.21.09-.3.24-.3S98.48,22.23,98.57,22.35Z"/><path class="a" d="M123,27.47a4.13,4.13,0,0,1-3.94-2.38.88.88,0,0,1-.15-.39.29.29,0,0,1,.27-.27c.12,0,.15.06.27.18.72.78,1.88,1.08,3.7,1.08a44.88,44.88,0,0,0,6.1-.69V22.08c0-.86,0-1.25-.26-1.49a1.75,1.75,0,0,0-.84-.36,4.83,4.83,0,0,0-.68-.11c-.12,0-.18-.06-.18-.21s.12-.33.36-.57a1.87,1.87,0,0,1,1.19-.51,4.51,4.51,0,0,1,2.29.75c1.07.62,1.28,1.16,1.28,1.52a1.11,1.11,0,0,1-.41.83,1.45,1.45,0,0,0-.57,1.13c-.06.72-.12,1.11-.15,1.64,1.13-.18,2.06-.36,2.92-.53a6.61,6.61,0,0,0,1.7-.54,2.26,2.26,0,0,1,1.46-.3c1.1,0,2.15.78,2.15,1.52s-.39,1.07-2,1.22c-2,.18-4.44.42-6.35.69,0,1.43,0,2.89,0,4.47a12.57,12.57,0,0,0,2.59-.63c.42-.18.36-.39.12-1a8.33,8.33,0,0,0-.68-1.14c-.12-.26.06-.38.33-.17.53.38,1.13.77,1.63,1.07a1.69,1.69,0,0,0,1.11.27c.89,0,1.4.38,1.4,1.07s-.66.89-1.61,1.25a24.18,24.18,0,0,1-4.83,1.22c0,1.28.21,3.43.3,4.62a21.8,21.8,0,0,1,6,2.62c1,.56,1.79,1.25,1.79,2.35a1.23,1.23,0,0,1-1.14,1.31,1.57,1.57,0,0,1-1.1-.47A18.44,18.44,0,0,0,131.76,40c.15,2.71-1.22,4.44-4.65,4.44a6.85,6.85,0,0,1-3.79-1,3.09,3.09,0,0,1-1.43-2.59,2.94,2.94,0,0,1,1.49-2.39,7,7,0,0,1,2.83-.89,18.56,18.56,0,0,1,3.19,0c0-1.4,0-2.83-.09-4.11-.77.06-1.9.06-2.41.06-3,0-4.26-1-4.26-2.47a3.78,3.78,0,0,1,1.13-2.48,11.22,11.22,0,0,1,1.46-1.16C124.72,27.44,123.74,27.47,123,27.47ZM126,39a5.8,5.8,0,0,0-2.3.56,1.48,1.48,0,0,0-.74,1.23,1.63,1.63,0,0,0,1,1.34,5.78,5.78,0,0,0,2.56.38,3.22,3.22,0,0,0,2.48-.83,3.64,3.64,0,0,0,.47-2.35A10.88,10.88,0,0,0,126,39Zm-1.26-10.34a2.55,2.55,0,0,0-.83,1.64c0,.75.66,1.31,2.38,1.31a29.39,29.39,0,0,0,3-.18c0-1.58,0-2.83,0-4.4-1,.11-1.69.23-2.8.38A6.63,6.63,0,0,0,124.75,28.69Z"/><path class="a" d="M153.63,21.19a1.17,1.17,0,0,0-.33-.69,4.44,4.44,0,0,0-.81-.71c-.14-.09-.26-.18-.26-.36s.53-.39,1.1-.39a4.33,4.33,0,0,1,3.13,1.88,2.5,2.5,0,0,1,.74,1.67,1.19,1.19,0,0,1-.8,1.1A11.6,11.6,0,0,0,152.85,26c-1.55,1.25-4,3.25-5.12,4.35-.42.42-.75.81-.75,1s.18.45.39.69A11.19,11.19,0,0,0,149,33.22a43.29,43.29,0,0,1,7.33,5.9c1.43,1.67,1.73,2.53,1.73,3.27a2.11,2.11,0,0,1-.33,1.34,1.31,1.31,0,0,1-1.22.48c-.33,0-.9-.39-1.58-1.46a39.17,39.17,0,0,0-8.44-9,2.78,2.78,0,0,1-1.28-2.12,2.29,2.29,0,0,1,.6-1.58c.42-.53,1.52-1.66,4-4.08.78-.77,1.82-1.87,3.07-3.3C153.48,21.87,153.63,21.55,153.63,21.19Z"/><path class="a" d="M177.37,24.58a4,4,0,0,0,1.22-.71,2.29,2.29,0,0,1,1.7-.54c1.31,0,1.73.63,1.73,1.22,0,.42-.3.84-1.61,1.31-1.16.42-2.71,1-4.68,1.61a31.06,31.06,0,0,0,2.39,4.41,6,6,0,0,0,1.7,1.85,2.72,2.72,0,0,1,.74,2.26c0,1.07-.33,1.43-1.1,1.43-.48,0-.84-.21-1.64-1.07-1.28-1.34-4.14-2.18-5.9-2.18a6.31,6.31,0,0,0-3.93,1,2.89,2.89,0,0,0-1.2,2.2c0,1.37.78,2.18,2.18,2.77a13.7,13.7,0,0,0,5.3.75,5.61,5.61,0,0,0,.81-.06,3.69,3.69,0,0,1,.65-.06,4.24,4.24,0,0,1,2.09.56,1.51,1.51,0,0,1,.86,1.25c0,.63-.56,1.4-2.71,1.4a16.73,16.73,0,0,1-7.9-1.58,5.3,5.3,0,0,1-3-4.46,4.58,4.58,0,0,1,2.9-4.11,11.49,11.49,0,0,1,4.35-.9,31,31,0,0,1,4.29.36A44.84,44.84,0,0,1,174,28a25.5,25.5,0,0,1-5.28.77,6.15,6.15,0,0,1-2.68-.41,5.9,5.9,0,0,1-2.36-1.94,1.34,1.34,0,0,1-.32-.57.26.26,0,0,1,.23-.26c.15,0,.36.2.63.38a5.75,5.75,0,0,0,3.37.93A27.57,27.57,0,0,0,173.2,26c-.36-1.07-.74-2.32-1.31-4-.24-.65-.45-.86-.78-1a3,3,0,0,0-.86-.15h-.57c-.17,0-.2-.12-.2-.24a1.32,1.32,0,0,1,.47-.8,1.72,1.72,0,0,1,1.4-.57,5.06,5.06,0,0,1,2.71.89,1.28,1.28,0,0,1,.6,1,1.26,1.26,0,0,1-.15.53,2.77,2.77,0,0,0-.09.87,12.74,12.74,0,0,0,.6,2.86A18.12,18.12,0,0,0,177.37,24.58Z"/><path class="a" d="M205.53,26.31a1.05,1.05,0,0,1-.78,1c-.47.21-.62.54-.92,1A51.81,51.81,0,0,1,197,37.27a26.2,26.2,0,0,1-9.66,6.49,2,2,0,0,1-.69.18c-.17,0-.29-.06-.29-.26s.15-.3.5-.54a37.18,37.18,0,0,0,8.7-7.63,40.7,40.7,0,0,0,5.88-9,.87.87,0,0,0,.08-.3.13.13,0,0,0-.14-.12c-.72.09-1.7.33-3,.57a12.48,12.48,0,0,1-1.61.3,4.73,4.73,0,0,1-1.64-.51,33.21,33.21,0,0,1-3.55,4,28.66,28.66,0,0,1-4.32,3.31c-.54.32-.77.44-.95.44s-.36-.12-.36-.32.42-.54,1.13-1.25a43.52,43.52,0,0,0,3.7-4.32c.83-1.11,1.64-2.3,2.41-3.55a6,6,0,0,0,1-2.29c0-.51-.5-.87-1.07-1.16-.27-.15-.36-.24-.36-.36s.39-.48,1-.48a6.28,6.28,0,0,1,2.92,1.08c.92.56,1.1.95,1.1,1.39a1.34,1.34,0,0,1-.66.93,6.42,6.42,0,0,0-1.22,1.49,2,2,0,0,0,.45,0,19.81,19.81,0,0,0,2.32-.33c1.23-.21,2-.39,2.39-.48a1.22,1.22,0,0,0,.62-.35,1.24,1.24,0,0,1,.78-.42c.71,0,1.37.36,2.41,1.31A1.91,1.91,0,0,1,205.53,26.31Zm1.52-4a2.24,2.24,0,0,1,1.1,1.79,1,1,0,0,1-1,1,1.08,1.08,0,0,1-1-.69,11.25,11.25,0,0,0-1.87-2.62c-.12-.12-.33-.26-.33-.38s.15-.21.36-.21a2.62,2.62,0,0,1,.68.12A5.44,5.44,0,0,1,207.05,22.26Zm2.74-2.06a1.81,1.81,0,0,1,1.07,1.52,1,1,0,0,1-.92,1.11,1.13,1.13,0,0,1-1.1-.66,7.63,7.63,0,0,0-2.09-2.32c-.12-.09-.36-.24-.36-.36a.24.24,0,0,1,.24-.24,4.14,4.14,0,0,1,.78.09A7.17,7.17,0,0,1,209.79,20.2Z"/><path class="a" d="M216.22,26.85c-.24-.09-.39-.12-.39-.27S216.4,26,217,26a7,7,0,0,1,3.16,1.16c.75.48.9.9.9,1.29a.9.9,0,0,1-.42.77,2.09,2.09,0,0,0-.51,1,23.09,23.09,0,0,1-2.44,5.54,15.43,15.43,0,0,1-6,5.54,1.81,1.81,0,0,1-.6.24c-.17,0-.26-.09-.26-.3s.06-.21.29-.41a18.3,18.3,0,0,0,4.21-5.22,23.06,23.06,0,0,0,2-5.18,8.13,8.13,0,0,0,.36-2.11C217.71,27.65,217,27.17,216.22,26.85ZM223,24.94a2.27,2.27,0,0,0-1.37-1.07c-.23-.09-.35-.12-.35-.33s.53-.65,1.25-.65a5.43,5.43,0,0,1,2.71,1c.54.33,1.19.83,1.19,1.52a1.09,1.09,0,0,1-.42.83,1.17,1.17,0,0,0-.23.72c-.06,2-.09,3.81-.15,6.73v2.2c0,.27,0,.39.15.39a2,2,0,0,0,.71-.24,37.64,37.64,0,0,0,9.84-5.78c.35-.3.53-.47.74-.47s.3.08.3.26a.88.88,0,0,1-.24.42c-2,2.74-5.36,5.57-10.52,8.61a1.53,1.53,0,0,0-.6.62.77.77,0,0,1-.68.42,2.49,2.49,0,0,1-1.49-.95,3.22,3.22,0,0,1-.84-1.79,2,2,0,0,1,.09-.51,8.61,8.61,0,0,0,.15-1.81c0-2.39,0-4.41,0-8.19A6.13,6.13,0,0,0,223,24.94Z"/><path class="a" d="M262.49,33c-.92,0-2.95-.15-4.41-.15-2.35,0-7.48.12-11.14.45a8.38,8.38,0,0,0-2.95.57,1.3,1.3,0,0,1-.81.23c-.77,0-1.46-.71-2.38-2a2.41,2.41,0,0,1-.57-1.61c0-.48.18-.71.36-.71s.24.12.39.26a2.93,2.93,0,0,0,2.5,1.14c.8,0,1.37,0,3.13-.15,3.69-.24,7.63-.42,10.55-.48a5.61,5.61,0,0,0,2.32-.42,2,2,0,0,1,.84-.23,3.42,3.42,0,0,1,1.34.29c1.13.48,1.91.93,1.91,1.67A1.13,1.13,0,0,1,262.49,33Z"/><path class="a" d="M272.35,27.32a2.77,2.77,0,0,0-1,.42,1.7,1.7,0,0,1-.87.21c-.5,0-1.07-.39-1.78-1.28s-1-1.4-1-2.09.15-.89.33-.89.27.12.51.36a2.75,2.75,0,0,0,2.59,1.19c.75,0,1.46-.06,2.21-.12,2.92-.27,5.9-.54,8.61-.86a2.66,2.66,0,0,0,1.34-.42,1.32,1.32,0,0,1,.77-.36,2.91,2.91,0,0,1,1.94.86c1.07.81,1.34,1.23,1.34,1.91a1,1,0,0,1-.62.78,2.69,2.69,0,0,0-1.29,1.43,32.84,32.84,0,0,1-5.66,7.92,26.29,26.29,0,0,1-9.83,6.43,1.67,1.67,0,0,1-.45.09c-.27,0-.39-.06-.39-.33s.15-.26.48-.47A30.71,30.71,0,0,0,278,34.71a45.32,45.32,0,0,0,4.65-7.6,2.37,2.37,0,0,0,.39-1c0-.12-.15-.15-.3-.15a11.65,11.65,0,0,0-1.25.12C278.49,26.4,275,26.82,272.35,27.32Zm18.93-5.75a2.48,2.48,0,1,1-4.95,0,2.48,2.48,0,0,1,4.95,0Zm-4.12,0a1.63,1.63,0,1,0,1.64-1.63A1.65,1.65,0,0,0,287.16,21.57Z"/><path class="b" d="M31.87,2.89c.42-1.25,0-2.58-1-2.85s-2,.68-2.31,2L25.93,15.18c-.07.32.25.67.71.79s.91,0,1-.34Z"/><path class="b" d="M25.23,21.33a3.67,3.67,0,0,1,1.57,1.12c3.12,3.41,1.75,7.77.48,11.64-.62,1.89-1.87,4.6-1.8,6.6a6,6,0,0,0,2.39,4.8c2.4,1.71,6,2.2,8.27.13a13.13,13.13,0,0,0,3.91-6.91c.46-2.48.11-5.36-2.26-6.75-3.63-2.14-5.33.64-5.33.64-1.38,1.81-2.59,4.16-2,6.52s2.87,1.67,2.83-.43c0-1.47-1.31-4,.86-4.66a3.42,3.42,0,0,1,3.58,1.76c.72,1.65.09,4-.66,5.53-1.06,2.16-3.27,4.24-5.86,3.73-2.28-.44-3.87-3.21-3.82-5.44.06-2.71,2-5,3.34-7.3,1.42-2.48,2.71-5,4-7.56,1.12-2.16,2.17-4.22,2.16-6.72,0-4.29-5.62-8-9.37-5.35-2-4.17-8.67-3.68-10.8,0-1.24,2.17-1.34,4.48-1.42,6.91-.1,2.86-.23,5.71-.22,8.57,0,2.6.59,5.61-.69,8-1.05,2-3.8,3.59-6,2.85-2.5-.84-3.39-3.73-3.26-6.13.1-1.7.71-4.06,2.15-5.14a3.41,3.41,0,0,1,4,.23c1.56,1.63-.8,3.21-1.55,4.47C8.63,34.3,10.4,36,12,34.26s1.74-4.43,1.43-6.69c0,0-.11-3.25-4.32-3.18-2.75.05-4.47,2.38-5.29,4.76a13.15,13.15,0,0,0,0,8c1,2.92,4.33,4.27,7.26,4a6.09,6.09,0,0,0,4.45-3c1.05-1.71,1.29-4.68,1.68-6.64.8-4,1.76-8.45,6.15-9.89a3.6,3.6,0,0,1,1.92-.2"/><path class="b" d="M26.23,30.44C25,35.16,19,45.06,19,45.06s-.36-11.57.89-16.29S23,22.58,24.78,23s2.7,2.68,1.45,7.4"/><path class="b" d="M42.51,2.89c-.42-1.25,0-2.58,1-2.85s2.05.68,2.31,2l2.59,13.17c.07.32-.26.67-.71.79s-.91,0-1-.34Z"/><path class="b" d="M49.15,21.33a3.67,3.67,0,0,0-1.57,1.12c-3.12,3.41-1.75,7.77-.48,11.64.62,1.89,1.88,4.6,1.81,6.6a6.08,6.08,0,0,1-2.4,4.8c-2.4,1.71-6,2.2-8.27.13a13.21,13.21,0,0,1-3.92-6.91c-.46-2.48-.1-5.36,2.26-6.75,3.64-2.14,5.34.64,5.34.64,1.37,1.81,2.59,4.16,2,6.52s-2.87,1.67-2.83-.43c0-1.47,1.31-4-.86-4.66a3.42,3.42,0,0,0-3.58,1.76c-.72,1.65-.09,4,.66,5.53,1.06,2.16,3.27,4.24,5.85,3.73,2.29-.44,3.88-3.21,3.83-5.44-.06-2.71-2-5-3.34-7.3-1.42-2.48-2.71-5-4-7.56-1.12-2.16-2.17-4.22-2.16-6.72,0-4.29,5.62-8,9.37-5.35,2-4.17,8.66-3.68,10.79,0,1.25,2.17,1.35,4.48,1.43,6.91.1,2.86.23,5.71.22,8.57,0,2.6-.59,5.61.69,8,1,2,3.8,3.59,6,2.85,2.5-.84,3.39-3.73,3.26-6.13-.1-1.7-.71-4.06-2.15-5.14a3.41,3.41,0,0,0-4,.23c-1.56,1.63.8,3.21,1.55,4.47C65.75,34.3,64,36,62.43,34.26S60.69,29.83,61,27.57c0,0,.11-3.25,4.32-3.18,2.75.05,4.47,2.38,5.29,4.76a13.23,13.23,0,0,1,0,8c-1,2.92-4.33,4.27-7.26,4a6.09,6.09,0,0,1-4.45-3c-1-1.71-1.29-4.68-1.68-6.64-.8-4-1.76-8.45-6.15-9.89a3.6,3.6,0,0,0-1.92-.2"/><path class="b" d="M48.14,30.44c1.25,4.72,7.26,14.62,7.26,14.62s.36-11.57-.89-16.29S51.36,22.58,49.6,23s-2.7,2.68-1.46,7.4"/><path class="b" d="M0,56.81l1.55-7.22,1,.21-.74,3.42,2.44-3,1,.21L2.77,53.44l.91,4.16-1-.23-.88-4.06L1,57Z"/><path class="b" d="M5.86,54.27a6.29,6.29,0,0,1,1-2.78,1.72,1.72,0,0,1,1.74-.6A1.69,1.69,0,0,1,10,52a6.3,6.3,0,0,1,0,3,6.29,6.29,0,0,1-1,2.77,1.7,1.7,0,0,1-1.72.59,1.72,1.72,0,0,1-1.44-1.14A6.22,6.22,0,0,1,5.86,54.27Zm1,.15a6.76,6.76,0,0,0-.13,2.22.88.88,0,0,0,.73.78A.84.84,0,0,0,8.37,57,6.89,6.89,0,0,0,9,54.79a6.86,6.86,0,0,0,.14-2.22.88.88,0,0,0-.72-.77.87.87,0,0,0-.94.48A6.64,6.64,0,0,0,6.85,54.42Z"/><path class="b" d="M11.15,58.9l1.61-7.23.89.12L14,57l1.7-4.93.86.11-.34,7.4-.91-.12.39-5.17-1.67,5-.66-.09L13,53.93l-1,5.09Z"/><path class="b" d="M17.59,59.73,20,52.55l.93.09,1,7.51-1-.1-.21-1.47-1.67-.17-.49,1.42Zm2.72-5.24-1,3.12,1.32.13Z"/><path class="b" d="M23.56,60.27l.49-7.36L25,53l-.23,3.48,2-3.37,1,.07-2,3.38,1.5,4-1.06-.07L24.8,56.56l-.25,3.78Z"/><path class="b" d="M28.89,58.63l.19-5.41,1,0-.19,5.49a1.12,1.12,0,0,0,.21.79.92.92,0,0,0,.72.28.91.91,0,0,0,.73-.23,1.11,1.11,0,0,0,.26-.77l.2-5.49,1,0-.19,5.41a2.21,2.21,0,0,1-.52,1.55,2,2,0,0,1-1.49.44,1.93,1.93,0,0,1-1.46-.54A2.25,2.25,0,0,1,28.89,58.63Z"/><path class="b" d="M34.59,59.46a3.32,3.32,0,0,0,.65.33,1.73,1.73,0,0,0,.56.11,1,1,0,0,0,.73-.26,1,1,0,0,0,.27-.71c0-.44-.34-.93-1-1.5l-.18-.15a4,4,0,0,1-.91-1,2,2,0,0,1-.25-1A1.91,1.91,0,0,1,35,53.84a1.69,1.69,0,0,1,1.32-.54,2.91,2.91,0,0,1,.66.08,2.8,2.8,0,0,1,.63.26v1a2.43,2.43,0,0,0-.56-.31,1.82,1.82,0,0,0-.54-.1,1.05,1.05,0,0,0-.76.27,1,1,0,0,0-.29.74c0,.42.36.92,1.08,1.51l.15.12a3.42,3.42,0,0,1,.89,1,2.1,2.1,0,0,1,.25,1.08,1.87,1.87,0,0,1-1.94,1.93,2.29,2.29,0,0,1-.62-.1,3,3,0,0,1-.66-.28Z"/><path class="b" d="M39,60.78l1.57-7.42.94,0,1.88,7.34-1,0L42,59.26l-1.68,0L40,60.75Zm2.08-5.52-.59,3.21,1.32,0Z"/><path class="b" d="M51.46,56.26l.06.45,0,.43a4.31,4.31,0,0,1-.36,2.42,1.84,1.84,0,0,1-1.57.89,1.74,1.74,0,0,1-1.69-.77,6,6,0,0,1-.7-2.85,6.06,6.06,0,0,1,.31-2.95,1.76,1.76,0,0,1,1.6-1,2.11,2.11,0,0,1,1.34.29,2,2,0,0,1,.76,1.12l-.84.49A1.46,1.46,0,0,0,50,54a1,1,0,0,0-.75-.21.92.92,0,0,0-.87.68,6.45,6.45,0,0,0-.11,2.25,6.47,6.47,0,0,0,.41,2.2.94.94,0,0,0,1,.57,1,1,0,0,0,.83-.54,2.79,2.79,0,0,0,.19-1.43,1.09,1.09,0,0,0,0-.22s0-.09,0-.13l-1.06.07-.05-.87Z"/><path class="b" d="M54.37,56.35l.36,3.59-1,.1L53,52.69l1.2-.12a2.52,2.52,0,0,1,1.74.28,1.86,1.86,0,0,1,.66,1.42,2.08,2.08,0,0,1-.22,1.3,1.49,1.49,0,0,1-1,.65l2.1,3.44-1.06.1-2-3.41Zm0-.56.3,0a1.14,1.14,0,0,0,.83-.37,1.57,1.57,0,0,0,.14-1,1.07,1.07,0,0,0-.32-.8,1.3,1.3,0,0,0-.91-.14l-.28,0Z"/><path class="b" d="M58.47,55.83a6.43,6.43,0,0,1,.1-2.95,1.71,1.71,0,0,1,1.48-1.08,1.68,1.68,0,0,1,1.7.65,6.51,6.51,0,0,1,.88,2.82,6.37,6.37,0,0,1-.1,2.94,1.91,1.91,0,0,1-3.18.43A6.41,6.41,0,0,1,58.47,55.83Zm1-.15A6.53,6.53,0,0,0,60,57.83a.87.87,0,0,0,.92.53.86.86,0,0,0,.75-.72,7.27,7.27,0,0,0-.06-2.25,6.91,6.91,0,0,0-.55-2.17.86.86,0,0,0-.91-.51.87.87,0,0,0-.75.74A6.77,6.77,0,0,0,59.47,55.68Z"/><path class="b" d="M64.81,56.67l-.93-5.33,1-.17.94,5.41a1.08,1.08,0,0,0,.37.73,1,1,0,0,0,.76.13,1,1,0,0,0,.67-.38,1.09,1.09,0,0,0,.09-.81l-.94-5.41,1-.17L68.64,56a2.22,2.22,0,0,1-.19,1.62,2.46,2.46,0,0,1-2.91.51A2.18,2.18,0,0,1,64.81,56.67Z"/><path class="b" d="M71.2,57.5l-1.55-7.21L70.84,50a4.15,4.15,0,0,1,1-.13,1.69,1.69,0,0,1,.71.18,1.62,1.62,0,0,1,.63.57,2.4,2.4,0,0,1,.38.91,1.94,1.94,0,0,1-.25,1.62,2.51,2.51,0,0,1-1.58.88l-.17,0-.11,0,.68,3.18Zm.1-4.25.37-.08a1.34,1.34,0,0,0,.87-.47,1.28,1.28,0,0,0,.08-1,1.15,1.15,0,0,0-.48-.81,1.45,1.45,0,0,0-1-.06l-.29.06Z"/></svg>