<svg xmlns="http://www.w3.org/2000/svg" viewBox="0 0 57.94 75.76"><defs><style>.a{fill:#2c6771}</style></defs><path class="a" d="M10.753 9.81a2.23 2.23 0 01-2.036-2.408l.159-1.893 4.444.372-.158 1.894a2.23 2.23 0 01-2.409 2.036z"/><path class="a" d="M19.05 38.28C10 38.28 4.25 24.11.71 13.45c-1.2-3.64-.87-6.85.93-9a7.94 7.94 0 016.78-2.64A2.68 2.68 0 0111.29 0a2.71 2.71 0 012.39 3v.46a.89.89 0 01-1.77-.2l.06-.47a.94.94 0 00-.83-1 1 1 0 00-1 .81l-.25 1.16L9 3.64C6.46 3.32 4.27 4 3 5.55c-1.4 1.69-1.61 4.3-.61 7.34C10.23 36.5 16.87 36.5 19.05 36.5c8.83 0 14.72-17.77 16.66-23.61 1-3 .79-5.65-.61-7.34-1.26-1.54-3.45-2.23-6-1.91l-.87.12-.16-1.17a1 1 0 00-1-.81 1 1 0 00-.63.35.94.94 0 00-.2.7l.06.46a.89.89 0 01-1.77.2l-.1-.49A2.65 2.65 0 0125 1a2.72 2.72 0 014.69.78 7.92 7.92 0 016.78 2.61c1.8 2.18 2.13 5.39.92 9-3.53 10.72-9.27 24.89-18.34 24.89z"/><path class="a" d="M24.838 5.883l4.474-.375.159 1.893a2.23 2.23 0 01-2.036 2.408 2.23 2.23 0 01-2.439-2.033l-.158-1.893zM49.34 52.6a8.6 8.6 0 118.6-8.6 8.61 8.61 0 01-8.6 8.6zm0-15.43A6.83 6.83 0 1056.17 44a6.84 6.84 0 00-6.83-6.83zM9.73 69.75a8.62 8.62 0 01-6.27-2.68 7.59 7.59 0 01-2.08-5.73 6.89 6.89 0 016.78-6.8 8.15 8.15 0 017.34 3.76.89.89 0 11-1.5 1 6.31 6.31 0 00-5.68-2.93c-1.82.14-4.91 1-5.17 5.13a5.85 5.85 0 001.6 4.4 6.84 6.84 0 005 2.12 8.45 8.45 0 008.44-8.44V37.39a.89.89 0 111.77 0v22.14A10.22 10.22 0 019.73 69.75z"/><path class="a" d="M37.22 75.76c-10.11 0-17.64-7.61-17.95-7.93a.89.89 0 010-1.26.9.9 0 011.26 0c.07.07 7.33 7.4 16.68 7.4a11.25 11.25 0 0011.24-11.21v-11a.89.89 0 011.78 0v11a13 13 0 01-13.01 13zM43.57 35a.9.9 0 01-.76-.42.88.88 0 01.29-1.22 11.93 11.93 0 0112.48 0 .88.88 0 01.28 1.22.89.89 0 01-1.22.29 10.11 10.11 0 00-10.6 0 .9.9 0 01-.47.13z"/></svg>