<svg xmlns="http://www.w3.org/2000/svg" viewBox="0 0 62.14 35"><defs><style>.a{fill:#2c646e}</style></defs><path class="a" d="M6.5 10a7.41 7.41 0 003.69.13A7.5 7.5 0 0014 8.07a.59.59 0 00-.86-.82 6.4 6.4 0 01-6.64 1.5v-.53a7 7 0 0114.07 0V9.7a7 7 0 00-3.48-2.62.64.64 0 00-.2 0 .54.54 0 00-.25.06.49.49 0 00-.2.18.56.56 0 00-.09.17 6.13 6.13 0 01-3.7 3.66 7.92 7.92 0 01-6.1.29zM8 17.24a.58.58 0 00-.56-.42H7c-.83 0-1.33-1-1.51-1.82-.23-1.11 0-2.18.54-2.5a8.94 8.94 0 007.09-.26 7.62 7.62 0 004.17-3.81c1.66.76 2.45 1.85 3.39 3.72a.69.69 0 00.11.13.59.59 0 00.2.12c.6.22.9 1.25.7 2.41-.17 1-.71 2-1.53 2h-.44a.6.6 0 00-.57.42A9.27 9.27 0 0117 21.12l-.08.1a4.89 4.89 0 01-6.79 0l-.08-.1A9.38 9.38 0 018 17.24zm8.89 6.56l-3.3 4-3.31-4v-1.01a6 6 0 006.6 0v1zM1.19 35v-4.44c0-1.9 2.12-2.85 4.57-3.95a20.81 20.81 0 003.66-1.93l3.66 4.44a.58.58 0 00.91 0l3.66-4.44a20.81 20.81 0 003.66 1.93c2.45 1.1 4.57 2.05 4.57 3.95V35h1.19v-4.44c0-2.67-2.68-3.87-5.28-5A17.52 17.52 0 0118 23.47v-1.66l.09-.09a.57.57 0 00.11-.16A10.78 10.78 0 0020.12 18c1.33 0 2.39-1.16 2.7-3 .23-1.3 0-2.87-1.07-3.53V8.22a8.23 8.23 0 00-16.45 0v3.29c-1.1.7-1.32 2.38-1 3.74C4.63 16.93 5.68 18 7 18a10.6 10.6 0 001.89 3.55.57.57 0 00.11.16l.09.09v1.66a17.52 17.52 0 01-3.77 2.06C2.68 26.69 0 27.89 0 30.56V35z"/><path class="a" d="M23.2 30.59h-6.56a.58.58 0 00-.59.59v1.66a.59.59 0 00.59.6h6.56a.59.59 0 00.59-.6v-1.66a.58.58 0 00-.59-.59zm-.59 1.66h-5.38v-.48h5.38zM42.79 8.36c.37 0 .72.05 1.05.05 2.54 0 4.24-1 5.86-3.25a.6.6 0 00-.15-.83.59.59 0 00-.82.14 5.61 5.61 0 01-5.83 2.71.58.58 0 00-.64.54.59.59 0 00.53.64z"/><path class="a" d="M39.19 10a8.65 8.65 0 1117.3 0v15.88a18.32 18.32 0 01-4-2.25v-3.08c2-2.15 3-5.7 2.91-10.82a.59.59 0 00-.59-.59.59.59 0 00-.59.6c.06 4.93-.83 8.26-2.73 10.15a.38.38 0 00-.09.13 4.88 4.88 0 01-7 0 .64.64 0 00-.1-.13c-2.39-2.39-2.77-5.66-2.83-9.38a8.13 8.13 0 006-.09 10.52 10.52 0 004.4-3.73.59.59 0 00-1-.69C49 8.55 45.8 11.15 41 9.09a.6.6 0 00-.83.55c0 4.11.29 8 3 10.91v3.08a18.24 18.24 0 01-4 2.25zm12.09 11.7v2.15l-.44 1.28h-.12a7.09 7.09 0 01-5.8 0h-.09l-.43-1.28v-2.19a6.21 6.21 0 006.88 0zm-6 4.84a8.27 8.27 0 005 .06L47.84 34zm-10.56 8.34v-3.51c0-2.13 2.29-3.18 4.93-4.39a23 23 0 003.86-2.08l3.37 10h1.78l3.5-10A23 23 0 0056 27c2.67 1.19 5 2.24 5 4.37v3.51h1.19v-3.51c0-2.49-2.12-3.8-4.46-4.93V10A9.84 9.84 0 1038 10v16.44c-2.35 1.12-4.46 2.44-4.46 4.93v3.51zm23.06-3.59h-6.56a.59.59 0 00-.6.59v1.66a.6.6 0 00.6.6h6.56a.59.59 0 00.59-.6v-1.66a.58.58 0 00-.59-.59zM57.19 33h-5.38v-.48h5.38z"/></svg>