<svg xmlns="http://www.w3.org/2000/svg" viewBox="0 0 70 45.66"><path d="M3.67 45.66A.71.71 0 013 45V21.46H.71a.72.72 0 01-.56-.27.74.74 0 01-.15-.61L4 4.69a.7.7 0 01.69-.54h20v1.43H5.21L1.62 20h15.31v1.42H4.39v22.82h15.43V12.81a.72.72 0 01.26-.55L34.55.17a.69.69 0 01.91 0l14.46 12.09a.71.71 0 01.25.55v31.43h15.44V21.46H53V20h15.38L64.79 5.58H45.33V4.15h20a.72.72 0 01.7.54L70 20.58a.74.74 0 01-.13.61.72.72 0 01-.56.27H67V45a.71.71 0 01-.72.71H3.67zM35 29.73A6.27 6.27 0 0141.32 36v8.28h7.43V13.14L35 1.64l-13.75 11.5v31.1h7.43V36A6.28 6.28 0 0135 29.73zm0 1.43a4.85 4.85 0 00-4.9 4.8v8.28h9.8V36a4.85 4.85 0 00-4.9-4.84zm19.84 5.13a.71.71 0 01-.72-.71v-7.27a.71.71 0 01.72-.71h7.46a.71.71 0 01.72.71v7.27a.71.71 0 01-.72.71zm.71-1.42h6V29h-6zM7.69 36.29a.71.71 0 01-.69-.71v-7.27a.71.71 0 01.71-.71h7.47a.71.71 0 01.71.71v7.27a.71.71 0 01-.71.71zm.71-1.42h6V29h-6z" fill="#2c6771"/></svg>