<svg xmlns="http://www.w3.org/2000/svg" viewBox="0 0 45.68 45"><defs><style>.a{fill:#2c646e}</style></defs><path class="a" d="M7.36 23.46a5.52 5.52 0 115.53-5.52 5.53 5.53 0 01-5.53 5.52zm0-9.39a3.87 3.87 0 103.87 3.87 3.87 3.87 0 00-3.87-3.87zM2.68 30.5h1.66V45H2.68zM10.4 30.5h1.66V45H10.4z"/><path class="a" d="M3.56 39.4A3.55 3.55 0 010 35.85v-8.33A3.56 3.56 0 013.56 24h3.8v1.66h-3.8a1.9 1.9 0 00-1.9 1.9v8.33a1.9 1.9 0 001.9 1.9zM11.17 39.4v-1.65a1.9 1.9 0 001.9-1.9v-8.33a1.9 1.9 0 00-1.9-1.9H7.36V24h3.81a3.57 3.57 0 013.56 3.56v8.33a3.56 3.56 0 01-3.56 3.51zM6.54 38.58H8.2V45H6.54zM22.84 23.46a5.52 5.52 0 115.52-5.52 5.53 5.53 0 01-5.52 5.52zm0-9.39a3.87 3.87 0 103.87 3.87 3.88 3.88 0 00-3.87-3.87zM18.15 30.5h1.66V45h-1.66zM25.88 30.5h1.66V45h-1.66z"/><path class="a" d="M19 39.4a3.55 3.55 0 01-3.55-3.55v-8.33A3.56 3.56 0 0119 24h3.81v1.66H19a1.91 1.91 0 00-1.9 1.9v8.33a1.91 1.91 0 001.9 1.9zM26.65 39.4v-1.65a1.9 1.9 0 001.9-1.9v-8.33a1.9 1.9 0 00-1.9-1.9h-3.81V24h3.81a3.57 3.57 0 013.56 3.56v8.33a3.56 3.56 0 01-3.56 3.51zM22.01 38.58h1.66V45h-1.66zM38.32 23.46a5.52 5.52 0 115.52-5.52 5.52 5.52 0 01-5.52 5.52zm0-9.39a3.87 3.87 0 103.86 3.87 3.88 3.88 0 00-3.86-3.87zM33.63 30.5h1.66V45h-1.66zM41.36 30.5h1.66V45h-1.66z"/><path class="a" d="M34.51 39.4A3.56 3.56 0 0131 35.85v-8.33A3.57 3.57 0 0134.51 24h3.81v1.66h-3.81a1.9 1.9 0 00-1.9 1.9v8.33a1.9 1.9 0 001.9 1.9zM42.13 39.4v-1.65a1.91 1.91 0 001.9-1.9v-8.33a1.91 1.91 0 00-1.9-1.9h-3.81V24h3.81a3.56 3.56 0 013.55 3.56v8.33a3.55 3.55 0 01-3.55 3.51zM37.49 38.58h1.66V45h-1.66zM30.8 10.22a5.11 5.11 0 115.11-5.11 5.11 5.11 0 01-5.11 5.11zm0-8.56a3.46 3.46 0 103.45 3.45 3.45 3.45 0 00-3.45-3.45zM26.06 12.78L24.8 11.7a3.34 3.34 0 012.52-1.17h3.48v1.66h-3.48a1.64 1.64 0 00-1.26.59zM35.5 12.73a1.69 1.69 0 00-1.23-.54H30.8v-1.66h3.47a3.35 3.35 0 012.45 1.08zM14.91 10.22A5.11 5.11 0 1120 5.11a5.11 5.11 0 01-5.09 5.11zm0-8.56a3.46 3.46 0 103.45 3.45 3.45 3.45 0 00-3.45-3.45zM10.17 12.78L8.91 11.7a3.34 3.34 0 012.52-1.17h3.48v1.66h-3.48a1.64 1.64 0 00-1.26.59z"/><path class="a" d="M19.61 12.73a1.69 1.69 0 00-1.23-.54h-3.47v-1.66h3.47a3.35 3.35 0 012.45 1.08z"/></svg>