<svg xmlns="http://www.w3.org/2000/svg" viewBox="0 0 47.17 47.17"><defs><style>.a{fill:#2c6771}</style></defs><path class="a" d="M23.58 42A18.46 18.46 0 1142 23.58 18.48 18.48 0 0123.58 42zm0-34.91A16.46 16.46 0 1040 23.58 16.47 16.47 0 0023.58 7.13z"/><path class="a" d="M23.58 47.17a23.59 23.59 0 1123.59-23.59 23.61 23.61 0 01-23.59 23.59zm0-45.17a21.59 21.59 0 1021.59 21.58A21.6 21.6 0 0023.58 2z"/><path class="a" d="M30.77 31.77a1 1 0 01-.71-.29l-7.18-7.19a1 1 0 01-.3-.71v-6.16a1 1 0 012 0v5.75l6.9 6.89a1 1 0 010 1.42 1 1 0 01-.71.29zM23.58 13.29a1 1 0 01-1-1v-4.1a1 1 0 012 0v4.1a1 1 0 01-1 1zM23.58 40a1 1 0 01-1-1v-4.1a1 1 0 012 0V39a1 1 0 01-1 1zM12.29 24.58h-4.1a1 1 0 110-2h4.1a1 1 0 010 2zM39 24.58h-4.1a1 1 0 010-2H39a1 1 0 010 2z"/></svg>