<svg xmlns="http://www.w3.org/2000/svg" viewBox="0 0 54.86 41.68"><defs><style>.a{fill:#2c646e}</style></defs><path class="a" d="M16.79 11.28H12a.84.84 0 010-1.68h4.79a.84.84 0 010 1.68z"/><path class="a" d="M44.36 11.28a.84.84 0 01-.84-.84V1.68H11.35v8.76a.84.84 0 01-.84.84.83.83 0 01-.83-.84V.84a.84.84 0 01.83-.84h33.85a.85.85 0 01.84.84v9.6a.84.84 0 01-.84.84zM54 37.94H.85a.84.84 0 110-1.68H54a.84.84 0 010 1.68z"/><path class="a" d="M53.18 37.1h1.67v3.74h-1.67zM.85 41.68a.85.85 0 01-.85-.84V37.1a.85.85 0 01.84-.84.84.84 0 01.83.84v3.74a.84.84 0 01-.82.84zM37.07 10.32a.84.84 0 01-.84-.84A26.29 26.29 0 0036 5.8c-1.3-.11-4.52-.34-8.56-.34s-7.06.22-8.31.33a26.46 26.46 0 00-.24 3.69.84.84 0 11-1.67 0 23.9 23.9 0 01.37-4.63.83.83 0 01.72-.66 90.88 90.88 0 019.13-.4c5.38 0 9.33.39 9.37.4a.83.83 0 01.73.66 23.9 23.9 0 01.37 4.63.84.84 0 01-.84.84z"/><path class="a" d="M54 39a.83.83 0 01-.83-.84v-.91c0-1.94 0-6-.52-7.1a3.26 3.26 0 00-3-1.83h-24a.84.84 0 010-1.67h24a4.93 4.93 0 014.46 2.75c.68 1.37.72 4.5.69 7.86v.9a.84.84 0 01-.8.84z"/><path class="a" d="M53.41 30.62a.83.83 0 01-.78-.55c-2.41-6.62-6.13-16.75-6.52-17.54a2.25 2.25 0 00-2-1.25H27.5a.84.84 0 010-1.68h16.58a3.92 3.92 0 013.53 2.19c.56 1.12 6 16 6.59 17.71a.84.84 0 01-.5 1.07.93.93 0 01-.29.05zM.85 39a.84.84 0 01-.85-.83v-.9c0-3.36 0-6.49.69-7.86a4.93 4.93 0 014.46-2.75h20.53a.84.84 0 110 1.67H5.16a3.26 3.26 0 00-3 1.83c-.56 1.12-.53 5.16-.52 7.1v.91a.83.83 0 01-.79.83z"/><path class="a" d="M1.45 30.62a1 1 0 01-.3-.05.84.84 0 01-.49-1.08c.63-1.69 6.17-16.58 6.73-17.7a3.92 3.92 0 013.54-2.19H27.5a.84.84 0 010 1.68H10.93a2.27 2.27 0 00-2 1.25c-.39.79-4.2 10.93-6.66 17.55a.83.83 0 01-.82.54z"/></svg>