<svg xmlns="http://www.w3.org/2000/svg" viewBox="0 0 69.03 42.93"><path d="M68.55 17c-.31-1.57-.61-3.14-.92-4.7s-.65-3.36-1-5l-1-4.9a5.43 5.43 0 00-.18-.82A2.2 2.2 0 0062.94.05L56 1.41l-6.51 1.26L43 3.93l-7.83 1.53a2.14 2.14 0 00-1.73 1.59 2.32 2.32 0 000 1.17.51.51 0 010 .13h-.08l-2.95-.6-4.45-.92a5.39 5.39 0 00-1.7-.13 4.57 4.57 0 00-3 1.55l-9.37 10.61q-1.68 1.89-3.34 3.79a3.09 3.09 0 01-1.54 1l-.37.1-6.52 2.12a.19.19 0 00-.12.23l.32.9a.2.2 0 00.24.13l5.25-1.73a7.35 7.35 0 012.62-.59l9.92-11.25c1.66-1.88 3.3-3.78 5-5.63a17.39 17.39 0 013.75.53l6.5 1.34h.13l.54 2.73-6.87 2.19-1-1.6a.65.65 0 00-.89-.23.64.64 0 00-.22.87l.78 1.31v.05l-2.62.84a.68.68 0 00-.45.86l.14.45a.19.19 0 00.24.12L28.16 16 38 12.82a3.13 3.13 0 011.89 0c2.18.68 3 3.63.44 5.35l-15.04 4.77h-.13a.36.36 0 00-.25.44 1.6 1.6 0 01.07.28 4.61 4.61 0 01-.2 2 5.83 5.83 0 01-1.71 2.57 9.56 9.56 0 01-2.42 1.54.18.18 0 00-.08.23l.43 1a.15.15 0 00.21.08c.33-.16.67-.32 1-.5a9 9 0 002.69-2.22 6.57 6.57 0 001.49-4.22.28.28 0 010-.09l2.76-.88A2.89 2.89 0 0029 25a2.85 2.85 0 001 1.53v.06c-.18.06-.37.11-.54.18-1.81.66-2.46 2.35-1.57 5.05.51-.25.69-.09.87.07a2.25 2.25 0 00-.4 2.5l-.16.11a24.2 24.2 0 01-5.5 2.93 28 28 0 01-5.16 1.41 22 22 0 01-3.53.34l-7.56 2.45a.23.23 0 00-.14.27l.29.89a.19.19 0 00.25.13l7.32-2.33a23.94 23.94 0 002.54-.21 28.55 28.55 0 003.29-.65 26.15 26.15 0 009.16-4.24c.17-.12.25-.07.79.42l5.39-1.76a2.22 2.22 0 001.54-2.06 2.08 2.08 0 00-.25-1.09c-.08-.15-.18-.28-.28-.44a2.89 2.89 0 002-4v-.05a2 2 0 00.74 0l3.91-.83 4.36-.85 4.5-.87 4.53-.89 4.16-.81 4.16-.81c1.44-.28 2.89-.53 4.31-.93a17.83 17.83 0 00-.47-3.52zm-43.48 6.58s.01-.01 0 0zm12-17.12l4.18-.82 4-.77 4.16-.81 4.15-.81 4.16-.81 4.35-.85c.68-.13 1.36-.25 2-.41.19 1 .39 2 .59 3l-29.49 5.88-.6-3.06c.84-.22 1.69-.38 2.53-.54zM30.28 24a1.47 1.47 0 011-1.2c.47-.17.94-.31 1.42-.47l3.09-1h.14l.58 2.95c-.24.1-.17.12-2.12-.53-1.25 1.82-2.55 2.47-3.55 1.71a1.45 1.45 0 01-.56-1.46zM35 32.86l-1 .33-3.27 1.07-.33.08a.9.9 0 01-.86-.74.85.85 0 01.54-1c.28-.11.56-.19.84-.28l3.46-1.14a1 1 0 01.52 0 .88.88 0 01.7.79.85.85 0 01-.6.89zm2.35-5.13a1.48 1.48 0 01-1 1.39c-.45.17-.91.3-1.37.45l-4.1 1.35a1.57 1.57 0 01-1.11 0 1.54 1.54 0 01.1-2.92l2.13-.68 3.24-1.06a1.61 1.61 0 011.22 0 1.53 1.53 0 01.84 1.47zm26.58-7.48l-4.19.81-4.51.88-4.52.88-4.51.88-4.51.88-3.5.68c-.22-1-.41-2.05-.61-3.08-.11-.52-.21-1-.31-1.58l.64-.21c1.11-.35 2.23-.68 3.32-1.09 3.4-2.57 2.26-6.67-.76-7.7a4.42 4.42 0 00-2.83 0l-1.85.59h-.14c0-.17-.06-.33-.1-.49v-.19L65 5.62c.3 1.52.59 3.05.89 4.58l1.26 6.45c.18 1 .37 1.9.55 2.85-1.29.26-2.56.5-3.82.75z" fill="#2c6771"/></svg>