<svg xmlns="http://www.w3.org/2000/svg" viewBox="0 0 48.52 48.58"><defs><style>.a{fill:#2c646e}</style></defs><path class="a" d="M20.47.65a1.9 1.9 0 00-2.68-.18L7.15 9.8h4.41L19 3.32l2 2.34 2.18-1.91zM36.07 9.8H32.2l-4.15-4.73-1 .86-2.17 1.92-2.23 2h-4.4L23 5.66l2.18-1.91 1.74-1.53a1.9 1.9 0 012.68.18zM42.27 22.25v-7.8a.29.29 0 00-.29-.29H3.19a.29.29 0 00-.29.29v30.93a.29.29 0 00.29.29H42a.29.29 0 00.29-.29v-7.8h2.91v7.8a3.21 3.21 0 01-3.2 3.2H3.19A3.2 3.2 0 010 45.38V14.45a3.2 3.2 0 013.19-3.2H42a3.21 3.21 0 013.2 3.2v7.8z"/><path class="a" d="M45.33 22.25h-13a3.19 3.19 0 00-3.19 3.19v9a3.19 3.19 0 003.19 3.19h13a3.19 3.19 0 003.19-3.19v-9a3.19 3.19 0 00-3.19-3.19zm.29 12.14a.29.29 0 01-.29.29h-13a.29.29 0 01-.29-.29v-8.95a.29.29 0 01.29-.29h13a.29.29 0 01.29.29z"/><path class="a" d="M39.87 29.91a2.36 2.36 0 11-2.35-2.35 2.35 2.35 0 012.35 2.35z"/></svg>