<svg xmlns="http://www.w3.org/2000/svg" viewBox="0 0 68.39 59.06"><defs><style>.a{fill:#2c6771}</style></defs><path class="a" d="M51.19 20.29l-2-5.11h-2.46a1 1 0 010-2h3.81l.73 1.82 2.95-6.95 2 5.11h2.4a1 1 0 010 2h-3.75l-.72-1.83zM67.39 28.38H38a1 1 0 01-1-1v-3.89a1 1 0 01.29-.71 1 1 0 01.71-.29h29.39a1 1 0 011 1v3.89a1 1 0 01-1 1zm-28.39-2h27.39v-1.89H39z"/><path class="a" d="M65.48 24.49H39.89a1 1 0 01-1-1V6a1 1 0 011-1h25.59a1 1 0 011 1v17.49a1 1 0 01-1 1zm-24.59-2h23.59V7H40.89zM41 48.52a1 1 0 01-1-.88l-1.08-9a6.89 6.89 0 00-2.35-3.86 5.43 5.43 0 00-2.23-1.19l-6.9-2a2.36 2.36 0 01-.7-.33 2.49 2.49 0 01-1.08-1.77l-.31-2.71a1 1 0 112-.23l.32 2.71a.48.48 0 00.21.34.61.61 0 00.14.07l6.83 2a7.39 7.39 0 013 1.58 8.92 8.92 0 013 5.1L42 47.4a1 1 0 01-.88 1.11zM1 48.52H.88A1 1 0 010 47.4l1.08-9a8.94 8.94 0 013.06-5.18 7.56 7.56 0 013.1-1.6l6.75-2 .13-.07a.49.49 0 00.22-.34l.25-2.17a12.73 12.73 0 01-3.76-5.89 4.14 4.14 0 01-2.35-4c0-2 1-3.65 2.55-4.08a1 1 0 11.56 1.93 2.16 2.16 0 00-1.1 2.16c0 1.27.64 2.12 1.24 2.18l.7.06.18.68a10.7 10.7 0 003.66 5.77l.44.34-.38 3.27a2.46 2.46 0 01-1.08 1.77 2.25 2.25 0 01-.7.33l-6.81 2a5.33 5.33 0 00-2.31 1.21 6.79 6.79 0 00-2.36 3.94L2 47.64a1 1 0 01-1 .88z"/><path class="a" d="M11.31 15a1 1 0 01-1-.93 18.63 18.63 0 01.64-6 1 1 0 011.25-.66 1 1 0 01.66 1.26 16.88 16.88 0 00-.56 5.3 1 1 0 01-.92 1.03zM41 48.52a1 1 0 01-1-.88l-1.08-9a6.89 6.89 0 00-2.35-3.86 5.46 5.46 0 00-2.25-1.2l-6.88-2a2.36 2.36 0 01-.7-.33 2.49 2.49 0 01-1.08-1.77l-.37-3.27.44-.34a10.82 10.82 0 003.66-5.77l.18-.68.69-.06c.6-.06 1.25-.91 1.25-2.18A2.16 2.16 0 0030.39 15a1 1 0 01-.69-1.24 1 1 0 011.24-.68 4 4 0 012.55 4.08 4.15 4.15 0 01-2.35 4 12.73 12.73 0 01-3.76 5.89l.25 2.17a.48.48 0 00.21.34.61.61 0 00.14.07l6.81 2a7.33 7.33 0 013 1.58 8.87 8.87 0 013 5.1L42 47.4a1 1 0 01-.88 1.11z"/><path class="a" d="M30.66 15h-.07a1 1 0 01-.93-1 16.71 16.71 0 00-.55-5.3A1 1 0 1131 8.06a19 19 0 01.64 6 1 1 0 01-.98.94zM21 36.6a4.86 4.86 0 01-3.27-1.25l-4.23-3.78a1 1 0 011.34-1.49l4.22 3.78a2.88 2.88 0 003.86 0l4.22-3.78a1 1 0 011.33 1.49l-4.22 3.78A4.85 4.85 0 0121 36.6zM49.13 59.06H26.25a6.91 6.91 0 01-6.9-6.9 1 1 0 012 0 4.91 4.91 0 004.9 4.9h22.88a2.55 2.55 0 002.55-2.55V27.38a1 1 0 012 0v27.13a4.55 4.55 0 01-4.55 4.55zM11.6 45.89a3.91 3.91 0 01-2.3-.78 1.42 1.42 0 01-.3-.3 3.46 3.46 0 014.87-4.87 1.38 1.38 0 01.29.3 3.53 3.53 0 01-.16 4.67 3.33 3.33 0 01-2.4.98zm-1-2.34a1.45 1.45 0 100-2 1.5 1.5 0 00-.04 2zm0 .07zm-.13-.13zm2.2-1.94z"/><path class="a" d="M11.58 44a1.5 1.5 0 111.5-1.5 1.5 1.5 0 01-1.5 1.5zm0-2a.51.51 0 000 1 .51.51 0 100-1zM20.35 44a1.5 1.5 0 111.49-1.5 1.5 1.5 0 01-1.49 1.5zm0-2a.51.51 0 100 1 .51.51 0 000-1zM29.11 44a1.5 1.5 0 111.5-1.5 1.5 1.5 0 01-1.5 1.5zm0-2a.51.51 0 000 1 .51.51 0 100-1z"/><path class="a" d="M20.36 45.89a3.93 3.93 0 01-2.3-.78 2.13 2.13 0 01-.3-.3 3.46 3.46 0 014.87-4.87 1.42 1.42 0 01.3.3 3.51 3.51 0 01-.2 4.67 3.31 3.31 0 01-2.37.98zm-1-2.34a1.45 1.45 0 10.05-2 1.5 1.5 0 00-.09 2zm.05.07zm2.07-2.07zM29.13 45.89a3.91 3.91 0 01-2.3-.78 1.42 1.42 0 01-.3-.3 3.46 3.46 0 014.87-4.87 1.7 1.7 0 01.3.3 3.54 3.54 0 01-.2 4.67 3.33 3.33 0 01-2.37.98zm-1-2.34a1.45 1.45 0 10.05-2 1.5 1.5 0 00-.09 2zm-.13-.06zm2.2-1.94zm-.13-.12z"/><path class="a" d="M20.35 53.16a9.57 9.57 0 01-8.81-5.81l-.88-2.06a1 1 0 011.84-.78l.88 2.05a7.57 7.57 0 0013.93 0l.88-2.05a1 1 0 011.32-.51 1 1 0 01.49 1.29l-.88 2.06a9.56 9.56 0 01-8.77 5.81z"/><path class="a" d="M20.35 49.53a1 1 0 01-1-1V44.9a1 1 0 012 0v3.63a1 1 0 01-1 1zM30.06 9.36a1 1 0 01-1-.75C29 8.33 27.3 2 21 2s-8 6.34-8.11 6.61a1 1 0 01-1.94-.5C11 8 13.11 0 21 0s10 8 10 8.11a1 1 0 01-.72 1.22 1.07 1.07 0 01-.22.03z"/></svg>