<svg xmlns="http://www.w3.org/2000/svg" viewBox="0 0 60.4 63.1"><defs><style>.a{fill:#2c6771}</style></defs><path class="a" d="M12.75 27l-.93-2c-.63-1.41-3.25-3.71-4.21-4.47s-2.13-1.86-3-2.74A1 1 0 116 16.3a36.16 36.16 0 002.83 2.59 27 27 0 013.86 3.76 27.18 27.18 0 013.82-3.81 36.21 36.21 0 003.52-3.39c.15-.18.28-.36.41-.54a5.94 5.94 0 00.79-1.57 4.45 4.45 0 00-.22-3.52 4.3 4.3 0 00-3.51-2.3c-2.71-.18-3.95 2.63-4 2.66l-.91 2.09-.93-2.08c-.05-.11-1.31-2.82-4-2.62a5.1 5.1 0 00-.66.14A1 1 0 015.74 7a1 1 0 01.71-1.23 6.29 6.29 0 011.15-.2 5.8 5.8 0 015.05 2.34 5.79 5.79 0 015-2.39 6.3 6.3 0 015.18 3.38 6.5 6.5 0 01.34 5.1 8.1 8.1 0 01-1 2.08 6.4 6.4 0 01-.55.71 36.67 36.67 0 01-3.75 3.63c-1 .78-3.56 3.11-4.18 4.52z"/><path class="a" d="M7.62 16a1 1 0 01-.62-.26l-5.41-4.58 1.65-1.94L.35 6.76a1 1 0 111.3-1.52L6.06 9l-1.65 1.93 3.86 3.29A1 1 0 017.62 16zM49.51 42.14A1 1 0 0149 40.3a20.94 20.94 0 009.39-18.91A20.85 20.85 0 0024.68 6.45a1 1 0 11-1.24-1.57A22.85 22.85 0 1150.05 42a1 1 0 01-.54.14zM25.61 42.14a1 1 0 01-.55-.16 23 23 0 01-10-15 1 1 0 012-.36 20.89 20.89 0 009.1 13.69 1 1 0 01-.54 1.84z"/><path class="a" d="M42.71 63.1H32.4l-2.95-3H23.6a3.51 3.51 0 01-3.51-3.51v-2.02L28.39 30h18.33L55 54.57v2.07a3.51 3.51 0 01-3.51 3.51h-5.83zm-9.48-2h8.65l2.95-3h6.68A1.51 1.51 0 0053 56.64V54.9L45.28 32H29.82l-7.73 22.9v1.74a1.51 1.51 0 001.51 1.51h6.68z"/><path class="a" d="M46.72 31.73l-1.44-1.39a10.77 10.77 0 00-9-18.19 10.77 10.77 0 00-6.48 18.19l-1.43 1.39a12.77 12.77 0 1118.33 0zM54 55.73h-.08a208.44 208.44 0 00-32.77 0 1 1 0 01-.16-2 212.52 212.52 0 0133.09 0 1 1 0 01-.08 2zM37.55 6.65a5.62 5.62 0 01-5.61-5.06A1 1 0 0132.83.5a1 1 0 011.1.89 3.65 3.65 0 007.25 0 1 1 0 011.1-.89 1 1 0 01.89 1.09 5.63 5.63 0 01-5.62 5.06z"/></svg>