<svg xmlns="http://www.w3.org/2000/svg" viewBox="0 0 57.56 57.48"><defs><style>.a{fill:#2c6771}</style></defs><path class="a" d="M1 57.48a.91.91 0 01-1-.86c0-.57-.85-14.2 7.8-17.09l12.84-4.28v-4.72a.92.92 0 011.84 0v5.38a.92.92 0 01-.63.87L8.42 41.27c-7.31 2.44-6.56 15.1-6.56 15.23a.91.91 0 01-.85 1zM56.62 57.48h-.07a.92.92 0 01-.85-1c0-.13.75-12.79-6.56-15.23l-13.47-4.47a.91.91 0 01-.62-.87v-5.38a.92.92 0 111.83 0v4.72l12.84 4.28c8.65 2.89 7.85 16.52 7.81 17.09a.92.92 0 01-.91.86z"/><path class="a" d="M33.27 32.34a.92.92 0 01-.36-1.76c5.57-2.38 6.36-8.93 7-14.19l.07-.62c.34-2.74.5-5.89-.87-8.49a10.25 10.25 0 00-5.93-4.75 14.2 14.2 0 00-8.79 0 10.27 10.27 0 00-5.94 4.75c-1.36 2.6-1.21 5.75-.87 8.49l.08.62c.63 5.26 1.42 11.81 7 14.19a.92.92 0 11-.72 1.69c-6.54-2.81-7.4-9.93-8.09-15.66l-.09-.61c-.37-3-.53-6.51 1.07-9.56a12 12 0 017-5.64 16.07 16.07 0 0110 0 12 12 0 017 5.64c1.5 3.04 1.34 6.56.97 9.56l-.07.62c-.7 5.73-1.56 12.85-8.1 15.66a.92.92 0 01-.36.06z"/><path class="a" d="M37.78 14.38h-.92a5 5 0 01-4.81-2.85c-1.56 1.86-4.59 2.85-11.35 2.85h-.91v-1.83h.91c8.8 0 10.1-1.75 10.8-3.86a.92.92 0 011.79.31 3.43 3.43 0 003.57 3.57h.92zM28.78 46.71a.92.92 0 01-.48-.14c-.31-.2-7.62-4.83-7.62-10.66a.92.92 0 011.84 0c0 4 4.71 7.69 6.26 8.77 1.55-1.08 6.27-4.73 6.27-8.77a.92.92 0 011.83 0c0 5.83-7.3 10.46-7.61 10.66a1 1 0 01-.49.14zM16.21 44.91a.92.92 0 01-.9-.74c0-.2-1-5.09 3-8.09a.91.91 0 011.1 1.46 6.64 6.64 0 00-2.35 6.28.92.92 0 01-.72 1.07z"/><path class="a" d="M22.5 57.48h-2.7a.92.92 0 010-1.83h1.78V53c0-3.63-2.48-8.06-5.37-8.06s-5.37 4.4-5.37 8.06v2.68h1.78a.92.92 0 110 1.83H9.93a.92.92 0 01-.93-.95V53c0-4.57 3.15-9.89 7.2-9.89s7.2 5.32 7.2 9.89v3.59a.92.92 0 01-.9.89zM41.35 48.5a.92.92 0 01-.91-.92v-1.79c0-3-.66-7.64-2.07-8.11a.92.92 0 01.63-1.74c3.16 1.05 3.32 8.39 3.32 9.85v1.79a.92.92 0 01-.97.92z"/><path class="a" d="M41.35 57.48a5.41 5.41 0 115.41-5.41 5.41 5.41 0 01-5.41 5.41zm0-9a3.58 3.58 0 103.57 3.57 3.57 3.57 0 00-3.57-3.55z"/></svg>