<svg xmlns="http://www.w3.org/2000/svg" viewBox="0 0 80 80"><defs><style>.b{fill:#749e75}.c{fill:#767bb0}.d{fill:#e3acc3}.e{fill:#559060}</style></defs><path d="M40 0a40 40 0 1040 40A40 40 0 0040 0z" fill="#fff"/><path class="b" d="M36.71 13.94a1.77 1.77 0 00-.86-2.36c-.83-.21-1.69.56-1.9 1.63L31.8 24.08c-.05.26.22.55.59.65a.68.68 0 00.84-.28z"/><path class="c" d="M31.23 29.15a3.07 3.07 0 011.3.93c2.57 2.81 1.43 6.41.39 9.6-.51 1.57-1.55 3.8-1.49 5.45a5 5 0 002 4c2 1.42 4.94 1.82 6.82.11a10.76 10.76 0 003.23-5.71c.38-2 .09-4.42-1.86-5.57-3-1.76-4.4.53-4.4.53-1.14 1.5-2.14 3.44-1.69 5.39s2.37 1.37 2.34-.36c0-1.22-1.08-3.31.71-3.85a2.82 2.82 0 012.95 1.46c.6 1.36.08 3.3-.54 4.56-.88 1.78-2.7 3.5-4.84 3.08-1.88-.36-3.19-2.65-3.15-4.49.05-2.24 1.68-4.16 2.75-6 1.17-2 2.24-4.15 3.33-6.25a11.69 11.69 0 001.78-5.54c0-3.54-4.64-6.62-7.73-4.42-1.61-3.44-7.15-3-8.91 0A11.79 11.79 0 0023 27.75c-.08 2.36-.19 4.71-.17 7.07 0 2.15.48 4.63-.58 6.6-.87 1.62-3.13 3-4.95 2.36-2.07-.69-2.81-3.08-2.69-5.06.08-1.4.58-3.35 1.77-4.24a2.81 2.81 0 013.29.18C21 36 19 37.32 18.41 38.36c-.88 1.49.58 2.86 1.86 1.46s1.44-3.65 1.18-5.52c0 0-.09-2.68-3.57-2.62-2.26 0-3.69 2-4.36 3.93a10.8 10.8 0 000 6.56c.79 2.41 3.57 3.52 6 3.26A5 5 0 0023.18 43c.87-1.41 1.07-3.86 1.39-5.48.66-3.29 1.45-7 5.07-8.16a3 3 0 011.59-.17"/><path class="d" d="M32.06 36.67c-1 3.9-6 12.06-6 12.06s-.29-9.54.73-13.44 2.6-5.11 4.06-4.73 2.22 2.21 1.2 6.11"/><path class="b" d="M45.49 13.94a1.76 1.76 0 01.86-2.36c.83-.21 1.69.56 1.9 1.63l2.15 10.87c.05.26-.22.55-.59.65a.68.68 0 01-.84-.28z"/><path class="c" d="M51 29.15a3 3 0 00-1.3.93c-2.57 2.81-1.44 6.41-.39 9.6.51 1.57 1.55 3.8 1.49 5.45a5 5 0 01-2 4c-2 1.42-4.94 1.82-6.83.11a10.89 10.89 0 01-3.23-5.71c-.37-2-.08-4.42 1.87-5.57 3-1.76 4.4.53 4.4.53 1.14 1.5 2.14 3.44 1.69 5.39s-2.38 1.37-2.34-.36c0-1.22 1.08-3.31-.71-3.85a2.81 2.81 0 00-3 1.46c-.6 1.36-.08 3.3.54 4.56.88 1.78 2.7 3.5 4.83 3.08 1.89-.36 3.2-2.65 3.16-4.49 0-2.24-1.69-4.16-2.75-6-1.18-2-2.24-4.15-3.33-6.25a11.69 11.69 0 01-1.78-5.54c0-3.54 4.64-6.62 7.73-4.42 1.61-3.44 7.15-3 8.91 0a11.79 11.79 0 011.18 5.7c.08 2.36.19 4.71.17 7.07 0 2.15-.48 4.63.58 6.6.86 1.62 3.13 3 4.95 2.36 2.07-.69 2.81-3.08 2.69-5.06-.08-1.4-.58-3.35-1.77-4.24a2.81 2.81 0 00-3.29.18c-1.29 1.35.66 2.66 1.28 3.7.88 1.49-.58 2.86-1.86 1.46s-1.44-3.65-1.18-5.52c0 0 .09-2.68 3.56-2.62 2.27 0 3.69 2 4.37 3.93a10.88 10.88 0 010 6.56c-.8 2.41-3.57 3.52-6 3.26A5 5 0 0159 43c-.86-1.41-1.06-3.86-1.38-5.48-.66-3.29-1.45-7-5.07-8.16a3 3 0 00-1.55-.21"/><path class="d" d="M50.14 36.67c1 3.9 6 12.06 6 12.06s.29-9.54-.73-13.44-2.61-5.11-4.06-4.73-2.23 2.21-1.2 6.11"/><path class="e" d="M8.13 57.85H8.43a1.16 1.16 0 00.57-.64 3.75 3.75 0 00.09-1v-3l.6.12v3a5.53 5.53 0 01-.1 1.27 1.33 1.33 0 01-.4.66 1.07 1.07 0 01.43.31.75.75 0 01.07.38v1.35L9 60.18V59a.29.29 0 000-.28.53.53 0 00-.29-.15l-.54-.11V60l-.6-.13v-1.54l-.61-.13c-.14-.23-.27-.47-.4-.7l1 .22V53l.6.13zM13.09 54.16a.66.66 0 01.36.56v5.69a.43.43 0 01-.34.44 1.59 1.59 0 01-.73 0 1.94 1.94 0 01-.75-.3.64.64 0 01-.33-.55v-5.67c0-.2.13-.34.39-.41a1.44 1.44 0 01.69 0 2 2 0 01.71.24zm-.4.41a.82.82 0 00-.32-.12.68.68 0 00-.32 0c-.09 0-.14.07-.14.15v5.32c0 .08.05.14.14.2a.82.82 0 00.32.12.85.85 0 00.32 0c.09 0 .13-.08.13-.15v-5.32a.22.22 0 00-.13-.2zM15.71 56.18v5.22l-.61-.1v-6.91l.61.1.75 2.12c.27-.63.53-1.25.79-1.88l.59.09v6.91l-.59-.09v-5.21l-.76 1.78zM21.4 55.47a.92.92 0 01.26.46v6.31l-.66-.08v-1.53l-.91-.12V62h-.56v-1.57l-.7-.09-.36-.68 1.06.15v-4.13a.9.9 0 01.14-.31 1 1 0 01.92-.21 1.43 1.43 0 01.81.31zm-1.21.37a.29.29 0 00-.07.23v3.82L21 60v-3.83a.4.4 0 00-.06-.25.65.65 0 00-.38-.14.55.55 0 00-.37.06zM23.89 60.35h.27a1.26 1.26 0 00.52-.72 3.84 3.84 0 00.09-1v-3l.61.06v3a5.53 5.53 0 01-.1 1.27 1.52 1.52 0 01-.4.72.77.77 0 01.43.26.67.67 0 01.07.37v1.34l-.61-.06v-1.23a.24.24 0 00-.07-.23.52.52 0 00-.3-.12h-.54v1.53l-.61-.07v-1.58l-.62-.07c-.14-.21-.27-.43-.4-.65l1 .11v-4.77l.61.07zM27.71 62.07a.22.22 0 00.14.19.85.85 0 00.33.09.76.76 0 00.32 0 .17.17 0 00.13-.17V56h.64v6.3a.53.53 0 01-.37.51 1.57 1.57 0 01-1.43-.13.65.65 0 01-.37-.55v-6.25h.61zM31.79 57.23a3.29 3.29 0 00-.26 1.2 2.06 2.06 0 00.15.79c.19.48.34.89.44 1.24a4.43 4.43 0 01.2 1.26 2.62 2.62 0 01-.1.73 2.42 2.42 0 01-.31.67h-.65a2.31 2.31 0 00.29-.67 3.15 3.15 0 00.09-.78 4.49 4.49 0 00-.13-1.08 7.33 7.33 0 00-.37-1.12 3.28 3.28 0 01-.23-1.2 3.39 3.39 0 01.7-2.05h.71a6.6 6.6 0 00-.53 1.01zM35.9 56.54a.84.84 0 01.25.44v6.31h-.63v-1.55h-.92v1.53h-.59v-1.58h-.7L33 61h1.06v-4.07a.87.87 0 01.15-.32 1.06 1.06 0 01.92-.3 1.48 1.48 0 01.77.23zm-1.22.46a.33.33 0 00-.08.24v3.81h.92v-3.77a.35.35 0 00-.06-.24.56.56 0 00-.38-.1.53.53 0 00-.4.06zM43.1 57h-1.26v4.15h1.26v.62h-1.26v1.53h-.61v-1.5h-.68l-.32-.63h1v-4.75h1.87zM45.39 62.47a.18.18 0 00.14.17.85.85 0 00.33 0 .89.89 0 00.32-.07.21.21 0 00.13-.19v-6.09h.64v6.24a.61.61 0 01-.37.56 1.61 1.61 0 01-1.44 0 .59.59 0 01-.37-.51v-6.23h.62zM49.2 60.92H49.5a1.64 1.64 0 00.53-.81 4.08 4.08 0 00.09-1v-3h.61v3a5.85 5.85 0 01-.1 1.29 1.84 1.84 0 01-.41.78.67.67 0 01.44.19.59.59 0 01.07.35V63h-.61v-1.22a.23.23 0 00-.07-.22.47.47 0 00-.31-.06h-.54v1.53h-.61v-1.46h-.62l-.41-.57h1v-4.82h.61zM53 62c0 .08 0 .13.14.17a.84.84 0 00.33 0 .8.8 0 00.32-.09.23.23 0 00.13-.19v-6.1l.64-.06V62a.7.7 0 01-.37.58 1.79 1.79 0 01-.72.22 1.44 1.44 0 01-.72-.12.54.54 0 01-.37-.49v-6.27l.62-.05zM57.1 56.49a3.68 3.68 0 00-.26 1.25 1.84 1.84 0 00.15.76 12.32 12.32 0 01.44 1.17 4.08 4.08 0 01.2 1.22 2.89 2.89 0 01-.1.76 3.26 3.26 0 01-.31.72l-.65.07a2.72 2.72 0 00.29-.72 3.29 3.29 0 00.09-.79 4.27 4.27 0 00-.13-1.06 7 7 0 00-.36-1.06 2.83 2.83 0 01-.24-1.16 3.87 3.87 0 01.7-2.16l.71-.08a7.57 7.57 0 00-.53 1.08zM61.42 61.83l-.61.09v-1.55l-.91.12V62l-.61.08v-1.51l-.7.09-.32-.55 1-.13v-4.77l.61-.08v4.77l.91-.12V55l.61-.09zM63.7 61.49l-.62.1v-6.91l.62-.1zM66 59h.14c.09 0 .14 0 .16-.06a1.92 1.92 0 00.52-.87 4.17 4.17 0 00.09-1v-3l.6-.1v2.94a6.06 6.06 0 01-.1 1.31A2.08 2.08 0 0167 59c.22 0 .37.06.43.14a.59.59 0 01.07.35v1.35l-.6.11v-1.21a.23.23 0 00-.08-.21.45.45 0 00-.3 0l-.53.09v1.53l-.61.11V59.7l-.62.1-.4-.54 1-.17v-4.77l.61-.11zM71 53.43a.62.62 0 01.25.38v6.31l-.62.12v-1.53l-.9.19v1.52l-.59.12V59l-.69.13-.36-.56 1-.2v-4.12a1.56 1.56 0 01.15-.36 1.42 1.42 0 01.91-.51 1.21 1.21 0 01.85.05zm-1.2.77a.37.37 0 00-.07.25v3.82l.9-.18v-3.84a.29.29 0 00-.06-.22c-.06-.05-.18-.06-.37 0a.65.65 0 00-.38.17zM73.48 59.64l-.61.13v-6.91l.61-.13z"/></svg>