<svg xmlns="http://www.w3.org/2000/svg" viewBox="0 0 80 80"><defs><style>.b{fill:#e3acc3}.c{fill:#759d74}.e{fill:#00959f}</style></defs><path d="M40 0a40 40 0 1040 40A40 40 0 0040 0z" fill="#fff"/><path class="b" d="M25.43 48.48a52.31 52.31 0 01.45-12.08 21.79 21.79 0 011.52-4.2 3 3 0 01.84-1 1.92 1.92 0 013.18.88 7.29 7.29 0 01-.09 4.14 35.16 35.16 0 01-3.46 8c-.77 1.42-1.63 2.83-2.44 4.26zM55 48.47c-.85-1.52-1.77-3-2.53-4.58A72.22 72.22 0 0149.42 37a13.28 13.28 0 01-.49-4.05 2.13 2.13 0 011.6-2.23 2.19 2.19 0 012.37 1.11A10 10 0 0154.74 37c.29 3.79.4 7.59.59 11.39z"/><path class="c" d="M33.7 21.49l-.16-.1a3.68 3.68 0 01.11-.65c.66-2 1.36-4 2-6a4.88 4.88 0 00.23-2.1 1.08 1.08 0 00-2-.51 3 3 0 00-.68 1.27c-.34 1.41-.58 2.85-.87 4.27-.21 1-.43 2.06-.68 3.23.62.83 1.23 1.1 2.05.59z"/><path d="M67.83 36.22a6.7 6.7 0 00-2.21-3.58 3.79 3.79 0 00-4-.53 2.71 2.71 0 00-1.79 2.35 8.92 8.92 0 000 2.63 7.93 7.93 0 001 2.51c.51.86 1.28 1 1.81.64s.56-1.24 0-2c-.17-.23-.38-.43-.54-.66a8.12 8.12 0 01-.81-1.31 1.38 1.38 0 01.6-1.81 2.73 2.73 0 013.6.76 6.8 6.8 0 01.59 6.68 3.39 3.39 0 01-5 1.63c-2.14-1.16-2.76-3.11-2.76-5.36 0-1.61.15-3.22.09-4.82-.09-2.95-.14-5.92-.48-8.85a5.32 5.32 0 00-7.16-4.5 11.94 11.94 0 00-1.75.88c-.27.95-1.27.41-2 .5v.07h-.51a5.29 5.29 0 00-5.07 2.41c-1.42 1.89-1.16 4-.2 5.9 1.85 3.71 3.86 7.33 5.84 11A6.71 6.71 0 0148.29 45a4.39 4.39 0 01-2.52 3.68 3.55 3.55 0 01-3.71-.7c-.94-.7-.92-.77-.4-1.84a7.75 7.75 0 00.74-5.94v-.41a.67.67 0 01.5 0 1.18 1.18 0 01.9 1.14 10.34 10.34 0 01-.1 1.46 11.43 11.43 0 00-.13 1.54 1.06 1.06 0 001 1.15c.66.05 1-.44 1.12-1a4.78 4.78 0 00.12-1.31 7.39 7.39 0 00-1.7-4.1 2.88 2.88 0 00-3.3-1.09 2.21 2.21 0 01-1.17 0 2.78 2.78 0 00-3.16.87A15.37 15.37 0 0035.05 41a3.8 3.8 0 00-.21 3.24c.17.36.68.8 1 .77a1.53 1.53 0 001-.85 3.11 3.11 0 000-1.36c0-.65-.17-1.29-.15-1.93s.52-1.13 1.34-1.09c0 0 .08.1.07.13a8.66 8.66 0 001 6.88.7.7 0 01-.08.61c-2.13 2.45-4.92 1.73-6.1-.24-1.38-2.32-.71-4.38.47-6.51 2-3.67 4.15-7.3 5.89-11.1 2-4.44-.72-8.23-5.58-8-.82.55-1.43.24-2-.57v.16a5.33 5.33 0 00-5.72-.88c-2.38.94-3.3 3-3.42 5.31-.21 4.19-.22 8.4-.28 12.6 0 2-.35 3.82-2.13 5.07-2 1.41-4.88 1.27-5.84-1.69a6.64 6.64 0 01-.38-2.06 6.07 6.07 0 011.61-4.71 2.82 2.82 0 013.45 0c.69.67.57 1.54-.34 2.69a7.81 7.81 0 00-1 1.38 1.09 1.09 0 00.32 1.52c.57.39 1 .12 1.43-.29a6.62 6.62 0 001-6.64c-1-1.87-4.19-2-5.81-.36a8.56 8.56 0 00-2.14 6.83 6.11 6.11 0 001.06 3.6 5.58 5.58 0 005.73 2 4.92 4.92 0 003.85-4c.59-2.39 1-4.82 1.61-7.2a6.44 6.44 0 014-4.79 2.52 2.52 0 013.24.85 5.58 5.58 0 011.39 4.25 40.66 40.66 0 01-1.07 5c-.44 1.67-1.11 3.29-1.47 5a4.69 4.69 0 002.69 5.12c2.28 1.16 4.54.94 6.13-.58.22-.22.44-.42.63-.6a12 12 0 002 1.44 5.36 5.36 0 005.77-.82 4.73 4.73 0 001.74-5.22c-.65-2.5-1.57-4.93-2.21-7.44a6.67 6.67 0 011.1-6.05 2.58 2.58 0 013.34-.93 6 6 0 013.8 4.23c.67 2.31 1.11 4.69 1.59 7 .67 3.28 2.78 5 5.86 4.75a5.18 5.18 0 004.68-3.7 11.1 11.1 0 00-.08-5.6zm-27.1 7.91a10.34 10.34 0 01-.36 1.07h-.26a5.06 5.06 0 01-.27-4.07c.07-.16.3-.36.43-.35s.33.23.4.4a4.58 4.58 0 01.06 2.95z" fill="#6fb1b8"/><path class="c" d="M49 20.89l-.1.11c-.23-1.08-.44-2.11-.65-3.14-.32-1.58-.6-3.16-1-4.73a1.6 1.6 0 00-1.74-1.33 1.65 1.65 0 00-.94 2 2 2 0 00.06.23c.63 1.92 1.27 3.83 1.89 5.75.17.53.31 1.07.48 1.67.75-.15 1.75.39 2-.56z"/><path class="e" d="M16.85 59.84l.92-6 .81.12-.44 2.84L20 54.19l.83.13L19 57l.94 3.36-.94-.18-.91-3.29-.44 3.11zM21.53 57.48a5.25 5.25 0 01.68-2.33 1.57 1.57 0 012.62.31 5.2 5.2 0 01.17 2.42 5.15 5.15 0 01-.68 2.32 1.37 1.37 0 01-1.39.56 1.39 1.39 0 01-1.23-.87 5.16 5.16 0 01-.17-2.41zm.82.08a5.76 5.76 0 000 1.83.73.73 0 00.65.61.7.7 0 00.73-.42 5.6 5.6 0 00.42-1.81 5.51 5.51 0 000-1.84.71.71 0 00-.62-.59.72.72 0 00-.75.44 5.33 5.33 0 00-.43 1.78zM26.07 61l1-6 .74.06.48 4.25 1.18-4.12.71.06v6.09l-.76-.06.1-4.26-1.15 4.18-.55-.05-.47-4.31-.58 4.23zM31.26 61.44l1.71-6h.76l1.14 6.12h-.83l-.23-1.2-1.39-.07-.33 1.18zm2-4.41l-.67 2.6h1.09zM36.08 61.65l.11-6.07H37v2.87l1.49-2.85h.85l-1.5 2.85 1.38 3.21h-.92L37 58.54l-.06 3.12zM40.46 60.09l-.05-4.45h.8l.06 4.52a.91.91 0 00.2.64.82.82 0 00.6.2.78.78 0 00.59-.22.91.91 0 00.19-.64l-.06-4.52h.81l.06 4.45a1.86 1.86 0 01-.37 1.29 1.63 1.63 0 01-1.21.42 1.58 1.58 0 01-1.22-.39 1.83 1.83 0 01-.4-1.3zM45.17 60.56a2.79 2.79 0 00.55.24 1.56 1.56 0 00.46.07.8.8 0 00.58-.25A.79.79 0 0047 60c0-.36-.31-.75-.89-1.19l-.16-.12a3.25 3.25 0 01-.79-.79 1.84 1.84 0 01-.25-.85 1.55 1.55 0 01.39-1.15 1.44 1.44 0 011.06-.51 2.5 2.5 0 01.55 0 2.76 2.76 0 01.53.18v.82a1.85 1.85 0 00-.47-.23 1.22 1.22 0 00-.45-.06.83.83 0 00-.61.25.8.8 0 00-.21.61c0 .35.33.75.94 1.2l.14.1a2.88 2.88 0 01.76.77 1.82 1.82 0 01.26.88 1.61 1.61 0 01-.4 1.17 1.54 1.54 0 01-1.12.49 1.87 1.87 0 01-.52 0 2.36 2.36 0 01-.55-.21zM48.8 61.47l1-6.15.77-.06 1.83 6-.82.05-.38-1.16-1.38.09-.2 1.21zm1.49-4.62l-.36 2.66 1.07-.08zM53.73 61.1l-.6-6 .81-.08.28 2.86 1.14-3 .85-.09-1.15 3 1.75 3-.87.09-1.71-3 .31 3.1zM57.78 60.68l.61-6.2.76-.11 2.21 5.83-.82.11-.44-1.14-1.37.18-.13 1.22zM59 56l-.2 2.67 1.09-.14zM62.74 60l-1-6 .8-.13 1 6z"/></svg>